<svg width="32" height="32" viewBox="0 0 32 32" fill="none" xmlns="http://www.w3.org/2000/svg">
<rect width="32" height="32" rx="16" fill="#D4FFFA"/>
<g clip-path="url(#clip0_166_54)">
<path d="M14.9064 26.095C16.1659 26.4947 17.6685 26.1993 19.371 25.2164C19.4695 25.1552 19.5676 25.1007 19.6682 25.0394C22.3222 23.4067 22.1404 20.3845 22.0533 18.9323L22.0519 18.9093C21.9784 17.6845 22.4674 15.7852 22.86 14.2589C22.9548 13.8922 23.0437 13.5451 23.1167 13.2396C23.1726 13.0055 23.137 12.8392 23.0104 12.7451C22.7731 12.5679 22.2411 12.656 21.7157 12.9593C20.9474 13.4029 20.1052 14.3597 20.0467 15.7148C20.0345 16.0003 19.912 16.1304 19.8116 16.1883C19.6449 16.2846 19.4004 16.2649 19.142 16.1334C18.9105 16.0167 18.7064 15.8333 18.5966 15.6431C18.4938 15.465 17.9755 14.6178 17.3185 13.5453C16.246 11.7941 14.7768 9.39538 14.2973 8.56476C13.9383 7.94301 13.4161 7.87425 13.0575 8.08131C12.7247 8.27342 12.5124 8.71336 12.7499 9.18074L13.1111 9.88863C13.9625 11.5559 15.5472 14.6597 15.6851 15.0032C15.7211 15.0936 15.6666 15.1338 15.6492 15.1449C15.5508 15.2006 15.5497 15.2024 14.9923 14.3379C14.6833 13.8589 14.2712 13.2106 13.8351 12.5243C13.0086 11.2237 12.0733 9.74948 11.7021 9.22436C11.34 8.71127 10.8519 8.73513 10.5167 8.92863C10.1548 9.13757 9.86954 9.59696 10.0555 10.0369C10.435 10.9372 13.0825 15.7697 13.2718 16.0976C13.3209 16.1826 13.2555 16.23 13.2479 16.2355C13.2261 16.2502 13.2001 16.2556 13.1742 16.25C13.1555 16.2457 13.145 16.2442 13.1103 16.1973L13.1079 16.1987C13.1037 16.1914 13.0985 16.1825 13.0925 16.172C13.0457 16.104 12.9632 15.9724 12.8008 15.7154C12.0275 14.4844 9.97299 11.2158 9.5168 10.7117C9.26242 10.43 8.87627 10.4997 8.60021 10.659C8.23266 10.8712 7.95039 11.3041 8.122 11.721C8.32396 12.211 9.29219 13.989 10.0694 15.4174C10.7379 16.6463 11.1503 17.4055 11.1931 17.532C11.2221 17.6177 11.1637 17.6569 11.1524 17.6634C11.0775 17.7045 10.6328 17.1498 9.81828 15.9995C9.24455 15.1909 8.59392 14.2734 8.43049 14.1043C8.27556 13.9444 7.9151 13.9259 7.67466 14.0647C7.41964 14.2119 7.3623 14.4847 7.51181 14.8334C7.69868 15.2673 8.31851 16.3764 9.03721 17.6605C9.89349 19.1922 10.8637 20.927 11.3465 21.9651L11.4327 22.1518C12.008 23.3988 12.9709 25.4853 14.9058 26.0996L14.9064 26.095ZM18.3444 17.8742C18.3833 17.8388 18.4442 17.8414 18.4801 17.8811C18.5155 17.92 18.5129 17.9809 18.4731 18.0168C18.3961 18.0872 16.5882 19.77 17.8618 22.449C17.8838 22.4945 17.8665 22.5488 17.8236 22.5735C17.8212 22.5749 17.8187 22.5764 17.8171 22.5773C17.7686 22.5999 17.7117 22.5798 17.6891 22.5314C16.3528 19.7213 18.3258 17.8925 18.3457 17.8745L18.3444 17.8742ZM12.1805 20.592C12.1669 20.5405 12.1968 20.4876 12.2488 20.4748C12.2843 20.4652 15.8646 19.5002 17.4988 17.6586C17.5341 17.6187 17.5946 17.6151 17.6345 17.6504C17.6743 17.6857 17.6779 17.7462 17.6426 17.786C17.1475 18.3439 16.4893 18.8211 15.806 19.2155C14.1796 20.1546 12.4028 20.6331 12.2981 20.6612C12.2466 20.6748 12.1945 20.6444 12.1809 20.5928L12.1805 20.592Z" fill="#FFDCAD"/>
<path d="M19.4676 25.3831C19.5672 25.3256 19.6667 25.2661 19.7689 25.2038C22.5211 23.5112 22.335 20.4106 22.2456 18.9208L22.2442 18.8978C22.1729 17.703 22.6571 15.8195 23.0466 14.3068C23.141 13.9392 23.2307 13.5917 23.3048 13.2844C23.3985 12.8914 23.2595 12.6899 23.1259 12.5911C22.819 12.3625 22.2277 12.4415 21.6197 12.7925C20.8069 13.2618 19.9165 14.2735 19.8547 15.707C19.8476 15.8666 19.8007 15.9725 19.7149 16.022C19.6072 16.0842 19.425 16.062 19.228 15.962C19.0315 15.8628 18.8531 15.7035 18.7629 15.5473C18.6587 15.3667 18.14 14.5188 17.4825 13.4454C16.4104 11.6951 14.943 9.29747 14.4644 8.46847C14.0391 7.73176 13.4036 7.65933 12.9615 7.91454C12.5503 8.15198 12.2862 8.69302 12.5791 9.26765L12.9403 9.97554C13.4515 10.9768 14.3214 12.6799 14.9075 13.8484C14.6335 13.4204 14.3134 12.9166 13.9984 12.4195C13.1709 11.1172 12.2342 9.64057 11.8607 9.11141C11.4239 8.4914 10.8121 8.53482 10.4219 8.76011C9.98879 9.01018 9.65085 9.56906 9.8789 10.1099C10.0795 10.5845 10.9038 12.1412 11.6702 13.564C10.8445 12.2704 9.94932 10.8993 9.66046 10.5803C9.38767 10.278 8.93402 10.242 8.50495 10.4897C8.07587 10.7374 7.73145 11.272 7.94526 11.7919C8.15155 12.2913 9.12177 14.0746 9.90131 15.5071C10.1254 15.9195 10.3457 16.3235 10.5295 16.6642C10.3539 16.418 10.1604 16.1465 9.97639 15.8858C9.37057 15.0309 8.74421 14.1479 8.57006 13.9678C8.35305 13.7434 7.9 13.7103 7.5794 13.8954C7.23938 14.0917 7.14819 14.4703 7.33647 14.9067C7.52768 15.3501 8.14984 16.4632 8.87006 17.7518C9.72447 19.2803 10.6933 21.0126 11.1727 22.043L11.2584 22.2288C11.8472 23.5048 12.8322 25.639 14.8478 26.279C16.1608 26.6965 17.7149 26.3951 19.4668 25.3836L19.4676 25.3831ZM11.3479 21.9613C10.8656 20.9239 9.89486 19.1884 9.03858 17.6567C8.32116 16.3729 7.70052 15.2643 7.51318 14.8295C7.36287 14.4813 7.42102 14.2081 7.67603 14.0609C7.91729 13.9216 8.27774 13.9401 8.43186 14.1005C8.59529 14.2695 9.24592 15.1871 9.81965 15.9957C10.6365 17.1475 11.0812 17.7022 11.1538 17.6596C11.1659 17.6526 11.2235 17.6139 11.1945 17.5281C11.1517 17.4017 10.74 16.642 10.0708 15.4135C9.29309 13.9843 8.32534 12.2072 8.12337 11.7171C7.95176 11.3002 8.23403 10.8674 8.60158 10.6552C8.87764 10.4958 9.26299 10.4266 9.51817 10.7078C9.97355 11.2124 12.0293 14.4814 12.8021 15.7116C12.9638 15.9691 13.0462 16.1006 13.0938 16.1681C13.0999 16.1787 13.1055 16.1884 13.1093 16.1949L13.1117 16.1935C13.1463 16.2404 13.1561 16.2423 13.1756 16.2462C13.2015 16.2517 13.2275 16.2464 13.2493 16.2317C13.2573 16.227 13.3223 16.1787 13.2732 16.0937C13.0839 15.7658 10.4363 10.9333 10.0569 10.033C9.87092 9.59312 10.1562 9.13373 10.5181 8.9248C10.8541 8.73082 11.3409 8.70663 11.7035 9.22053C12.0739 9.74611 13.01 11.2198 13.8365 12.5205C14.2726 13.2067 14.6839 13.8555 14.9936 14.334C15.5523 15.1989 15.5522 15.1968 15.6506 15.141C15.6684 15.1307 15.723 15.0906 15.6865 14.9994C15.5486 14.6559 13.9644 11.5529 13.1125 9.8848L12.7513 9.1769C12.5125 8.70918 12.7253 8.27005 13.0588 8.07748C13.4175 7.87042 13.9402 7.93998 14.2987 8.56092C14.7782 9.39155 16.2473 11.7903 17.3199 13.5415C17.9769 14.614 18.4952 15.4611 18.598 15.6392C18.7078 15.8295 18.9119 16.0128 19.1434 16.1296C19.4025 16.2606 19.6462 16.2808 19.813 16.1845C19.9134 16.1265 20.0363 15.9973 20.048 15.7109C20.1066 14.3559 20.9488 13.399 21.7171 12.9555C22.2417 12.6526 22.7745 12.5641 23.0117 12.7412C23.1384 12.8354 23.1744 13.0024 23.1181 13.2358C23.0451 13.5413 22.9557 13.8875 22.8614 14.2551C22.4688 15.7813 21.9797 17.6807 22.0533 18.9055L22.0546 18.9285C22.1418 20.3807 22.3233 23.4041 19.6696 25.0355C19.5694 25.0977 19.4704 25.1505 19.3724 25.2125C17.6698 26.1955 16.1673 26.4909 14.9078 26.0911C12.9718 25.4807 12.0097 23.3937 11.4336 22.1471L11.3474 21.9605L11.3479 21.9613Z" fill="#D79054"/>
<path d="M17.6887 22.531C17.7113 22.5795 17.769 22.5991 17.8167 22.577C17.8191 22.5756 17.8215 22.5741 17.8232 22.5732C17.8661 22.5484 17.8833 22.4942 17.8613 22.4486C16.5882 19.7705 18.3957 18.0868 18.4727 18.0165C18.5124 17.9806 18.5151 17.9197 18.4797 17.8808C18.4438 17.841 18.3829 17.8384 18.344 17.8738C18.3241 17.8918 16.3511 19.7207 17.6874 22.5307L17.6887 22.531Z" fill="#D79054"/>
<path d="M12.2985 20.6598C12.4032 20.6318 14.18 20.1532 15.8064 19.2142C16.4905 18.8192 17.1479 18.3425 17.643 17.7847C17.6783 17.7449 17.6747 17.6844 17.6348 17.649C17.595 17.6137 17.5345 17.6174 17.4992 17.6572C15.8654 19.4996 12.2851 20.4646 12.2492 20.4735C12.1977 20.487 12.1678 20.5399 12.1809 20.5907C12.1944 20.6422 12.2473 20.6721 12.298 20.659L12.2985 20.6598Z" fill="#D79054"/>
<path d="M22.0814 12.7825C22.1919 12.845 22.2896 12.93 22.3587 13.0348C22.5986 13.3961 22.5741 13.8733 22.4657 14.2932C22.1203 15.6357 21.048 16.7081 20.7443 18.0611C20.5764 18.8079 20.6579 19.5866 20.5859 20.3482C20.514 21.1097 20.2386 21.9228 19.5849 22.3218C19.3861 22.443 19.1616 22.5198 18.9757 22.6595C18.7897 22.7992 18.6433 23.0317 18.7012 23.2573C18.7293 23.3695 18.8045 23.4643 18.8421 23.5743C18.9071 23.7634 18.8555 23.9713 18.7962 24.1621C18.6078 24.7631 18.3417 25.3399 18.0072 25.873C18.4466 25.7067 18.9018 25.4893 19.373 25.2172C19.4715 25.156 19.5696 25.1016 19.6702 25.0402C22.3242 23.4075 22.1424 20.3854 22.0552 18.9332L22.0538 18.9102C21.9803 17.6854 22.4694 15.786 22.8619 14.2598C22.9568 13.8931 23.0457 13.546 23.1186 13.2405C23.1745 13.0063 23.139 12.8401 23.0123 12.7459C22.8304 12.6103 22.4744 12.6312 22.0815 12.7846L22.0814 12.7825Z" fill="#FCCA92"/>
<path d="M13.8803 24.5412C13.327 23.8913 12.9004 23.1337 12.6323 22.3235C12.5207 21.9864 12.4353 21.6309 12.4698 21.2774C12.4981 20.988 12.6202 20.6984 12.8295 20.502C12.525 20.599 12.3288 20.6518 12.2963 20.6609C12.2447 20.6744 12.1927 20.6441 12.1791 20.5925C12.1655 20.541 12.1954 20.4881 12.2474 20.4753C12.254 20.4737 12.3781 20.4399 12.5853 20.3763C11.8881 20.3147 11.2113 20.0157 10.7053 19.5318C10.3068 19.1519 10.018 18.6742 9.73707 18.2007C9.21252 17.3183 8.69815 16.4311 8.19384 15.5371C7.94035 15.0887 7.68725 14.626 7.58924 14.1234C7.40928 14.2791 7.3814 14.5262 7.5132 14.8312C7.70007 15.2652 8.3199 16.3743 9.0386 17.6583C9.89487 19.1901 10.8651 20.9248 11.3479 21.9629L11.4341 22.1496C12.0094 23.3966 12.9723 25.4832 14.9072 26.0974C15.2313 26.2007 15.5722 26.2565 15.9272 26.2674C15.172 25.7783 14.4638 25.2265 13.8817 24.5436L13.8803 24.5412Z" fill="#FCCA92"/>
<path d="M11.1947 17.529C11.1947 17.529 11.1954 17.5339 11.1965 17.5376C11.3653 17.4132 11.4465 17.1817 11.4353 16.968C11.4223 16.7229 11.3123 16.495 11.1987 16.2777C10.4241 14.8014 9.36939 13.4663 8.78072 11.9063C8.63628 11.5234 8.5221 11.1144 8.51913 10.7092C8.19385 10.9347 7.96442 11.3338 8.12279 11.7184C8.32475 12.2085 9.29297 13.9864 10.0702 15.4148C10.7387 16.6437 11.1511 17.403 11.1939 17.5294L11.1947 17.529Z" fill="#FCCA92"/>
<path d="M10.0521 10.0344C10.4316 10.9347 13.0791 15.7672 13.2684 16.0951C13.2703 16.0983 13.2722 16.1016 13.2732 16.1053C13.3381 15.3371 13.1175 14.5642 12.7939 13.8616C12.452 13.1199 11.998 12.4364 11.6081 11.7181C11.2313 11.0224 10.9154 10.2938 10.6642 9.54284C10.5958 9.33838 10.5325 9.12775 10.538 8.91298C10.53 8.91766 10.5214 8.92152 10.5125 8.92666C10.1506 9.13559 9.86532 9.59499 10.0513 10.0349L10.0521 10.0344Z" fill="#FCCA92"/>
<path d="M13.2534 16.2248C13.2534 16.2248 13.2571 16.2313 13.259 16.2346C13.2599 16.2286 13.26 16.2232 13.2609 16.2173C13.2581 16.2199 13.2561 16.2222 13.2534 16.2248Z" fill="#FCCA92"/>
<path d="M15.4895 15.0794C15.5078 15.1261 15.5252 15.1732 15.5411 15.2213C15.5494 15.1981 15.5555 15.1752 15.563 15.1525C15.5442 15.1407 15.5207 15.1186 15.4895 15.0794Z" fill="#FCCA92"/>
<path d="M15.3229 13.1399C15.0217 12.4913 14.5831 11.9166 14.2182 11.3015C13.7274 10.4719 13.3701 9.56319 13.1653 8.62142C13.1249 8.43747 13.0949 8.23782 13.1114 8.0513C13.0926 8.05997 13.0744 8.06944 13.0566 8.07972C12.7238 8.27183 12.5115 8.71176 12.749 9.17915L13.1102 9.88704C13.8966 11.4267 15.3067 14.1888 15.6275 14.8735C15.7213 14.2937 15.5726 13.679 15.3216 13.1396L15.3229 13.1399Z" fill="#FCCA92"/>
<path d="M19.4665 16.7C19.5705 16.6465 19.6438 16.5491 19.7036 16.4487C19.7552 16.3606 19.7999 16.2679 19.8352 16.172C19.8271 16.1766 19.82 16.1829 19.8127 16.1871C19.6459 16.2834 19.4014 16.2638 19.1431 16.1323C18.9116 16.0155 18.7075 15.8321 18.5976 15.6419C18.535 15.5334 18.3184 15.177 18.011 14.6745C18.0555 14.8226 18.0976 14.9721 18.1338 15.1228C18.2077 15.4245 18.266 15.733 18.3923 16.0173C18.5187 16.3017 18.723 16.5658 19.0085 16.6881C19.1538 16.751 19.3273 16.7729 19.4673 16.6996L19.4665 16.7Z" fill="#FCCA92"/>
<path d="M20.2898 23.1384C20.4394 22.9862 20.5966 22.7519 20.4675 22.5825C19.7807 22.7653 19.0047 22.9262 18.3963 22.5585C17.8327 22.2179 17.592 21.5095 17.5776 20.8507C17.5613 20.0765 17.804 19.2984 18.2581 18.6714C18.388 18.4928 18.5352 18.3214 18.6107 18.1138C18.6854 17.9066 18.6672 17.6451 18.4995 17.5023C18.3432 17.5008 18.1863 17.56 18.0699 17.665C18.021 17.4719 17.7925 17.3696 17.5946 17.3932C17.3966 17.4169 17.2226 17.5324 17.0577 17.6449C16.212 18.2217 15.3662 18.7985 14.5213 19.3748C14.0916 19.6683 13.6582 19.9627 13.1792 20.167C12.5907 20.4171 11.9529 20.522 11.3212 20.6244C11.3092 21.2693 11.526 21.9159 11.9241 22.4222L12.5188 22.7848C12.2007 22.1946 12.5062 21.4299 13.014 20.9932C13.2354 20.8027 13.4916 20.6537 13.7672 20.5572C14.0354 20.4628 14.3192 20.4177 14.5925 20.3376C15.3304 20.1199 15.9639 19.6505 16.5808 19.1897C16.6981 19.232 16.7131 19.3907 16.7004 19.5146C16.6568 19.9607 16.5281 20.3978 16.5164 20.8449C16.4928 21.7836 17.0328 22.7153 17.8591 23.1612C18.0703 23.2746 18.2991 23.3605 18.4876 23.5075C18.7644 23.7234 18.9294 24.0502 19.0852 24.365C19.4862 23.9565 19.8864 23.5484 20.2878 23.1406L20.2898 23.1384ZM15.8063 19.2148C14.1798 20.1538 12.403 20.6324 12.2983 20.6604C12.2468 20.674 12.1947 20.6436 12.1812 20.5921C12.1676 20.5405 12.1975 20.4877 12.2495 20.4749C12.2849 20.4652 15.8653 19.5002 17.4995 17.6586C17.5348 17.6188 17.5953 17.6152 17.6351 17.6505C17.675 17.6858 17.6786 17.7463 17.6433 17.7861C17.1482 18.3439 16.49 18.8211 15.8067 19.2156L15.8063 19.2148ZM17.8612 22.4487C17.8832 22.4943 17.8659 22.5485 17.823 22.5733C17.8206 22.5747 17.8181 22.5761 17.8165 22.577C17.768 22.5996 17.7111 22.5796 17.6885 22.5311C16.3522 19.721 18.3252 17.8922 18.3451 17.8742C18.384 17.8388 18.4449 17.8414 18.4808 17.8812C18.5162 17.9201 18.5135 17.981 18.4738 18.0169C18.3968 18.0872 16.5888 19.7701 17.8624 22.449L17.8612 22.4487Z" fill="#FCCA92"/>
<path d="M20.9211 14.0545C20.7003 14.1917 20.603 14.4346 20.515 14.671C20.428 14.9037 20.3391 15.2152 20.4058 15.4616C20.4187 15.5082 20.4778 15.5021 20.4934 15.4618C20.5773 15.2482 20.5907 15.0041 20.6629 14.7832C20.743 14.5405 20.9001 14.3321 20.9585 14.0836C20.9635 14.0624 20.9405 14.0432 20.9211 14.0545Z" fill="#FFF9DF"/>
<path d="M21.3574 13.449C21.1722 13.4761 21.0582 13.6412 21.0106 13.8112C20.9868 13.8972 21.106 13.9428 21.151 13.8694C21.2288 13.7424 21.3286 13.633 21.3956 13.5004C21.4094 13.4719 21.3865 13.4452 21.3566 13.4495L21.3574 13.449Z" fill="#FFF9DF"/>
<path d="M13.4804 8.16233C13.4168 8.16238 13.4043 8.25485 13.4656 8.27127C13.5193 8.28564 13.5684 8.31662 13.61 8.35307C13.6525 8.39115 13.6812 8.43717 13.732 8.4672C13.7516 8.47859 13.7705 8.46657 13.7782 8.4481C13.8473 8.27978 13.6132 8.16232 13.4813 8.16186L13.4804 8.16233Z" fill="#FFF9DF"/>
<path d="M14.4115 9.19404C14.2702 8.99605 14.1503 8.78462 14.0074 8.58756C13.9713 8.53821 13.903 8.57875 13.9264 8.6343C14.0219 8.85766 14.1552 9.06242 14.2868 9.26602C14.4014 9.44384 14.5133 9.65449 14.7056 9.75393C14.7242 9.76371 14.7455 9.74819 14.7409 9.72711C14.693 9.52267 14.5305 9.3628 14.4115 9.19404Z" fill="#FFF9DF"/>
<path d="M10.9366 9.06008C10.8992 9.07196 10.905 9.1269 10.9449 9.12869C10.9953 9.12986 11.0478 9.14052 11.0961 9.15689C11.1539 9.17646 11.1908 9.21989 11.2326 9.26052C11.2744 9.30115 11.3441 9.24796 11.3139 9.19743C11.2404 9.07578 11.069 9.01822 10.9366 9.06008Z" fill="#FFF9DF"/>
<path d="M12.0088 10.0244C11.8514 9.81728 11.6826 9.62011 11.5112 9.42433C11.4815 9.38968 11.4203 9.43691 11.448 9.47378C11.5985 9.67834 11.7446 9.88652 11.8919 10.093C12.0222 10.2757 12.124 10.4987 12.3117 10.6256C12.3388 10.6445 12.3704 10.6133 12.3649 10.5851C12.3164 10.3703 12.1415 10.1982 12.0101 10.0247L12.0088 10.0244Z" fill="#FFF9DF"/>
<path d="M8.96699 10.8248C8.90738 10.8225 8.82959 10.8243 8.77756 10.8575C8.74935 10.876 8.74912 10.9279 8.78764 10.9348C8.84056 10.9442 8.89571 10.935 8.94953 10.9385C9.00334 10.942 9.05505 10.9661 9.10643 10.9429C9.1276 10.9328 9.13765 10.8979 9.12354 10.8791C9.08621 10.8294 9.02452 10.8272 8.96699 10.8248Z" fill="#FFF9DF"/>
<path d="M9.41256 11.025C9.37477 11.0025 9.32153 11.0506 9.34895 11.0887C9.46398 11.2468 9.60617 11.3828 9.73125 11.534C9.89155 11.7275 9.99502 11.9721 10.1763 12.146C10.2079 12.1763 10.2538 12.1455 10.2468 12.1053C10.1754 11.718 9.74287 11.225 9.41175 11.0255L9.41256 11.025Z" fill="#FFF9DF"/>
<path d="M8.07415 14.2648C8.04041 14.24 8.00471 14.2174 7.96982 14.1944C7.95761 14.1863 7.93709 14.1863 7.9246 14.1946C7.90692 14.207 7.89017 14.221 7.87342 14.2349C7.8539 14.2516 7.84459 14.271 7.82716 14.2876C7.81722 14.2965 7.82751 14.3143 7.84024 14.3102C7.85877 14.3049 7.87363 14.3082 7.8925 14.3016C7.90847 14.2957 7.92526 14.2892 7.94123 14.2832C7.97008 14.3033 7.99892 14.3233 8.02973 14.3412C8.04147 14.3484 8.06165 14.3497 8.07367 14.3406C8.08407 14.3325 8.09042 14.3266 8.09384 14.3139C8.10013 14.293 8.08904 14.2756 8.07287 14.2644L8.07415 14.2648Z" fill="#FFF9DF"/>
<path d="M8.26944 14.3656C8.23549 14.3442 8.20196 14.3927 8.22794 14.4209C8.56076 14.7674 8.8658 15.1256 9.16639 15.5004C9.18037 15.5171 9.21195 15.4989 9.20444 15.4784C9.02547 15.0226 8.68884 14.6265 8.26991 14.3664L8.26944 14.3656Z" fill="#FFF9DF"/>
<path d="M20.6333 17.2095C20.1546 17.949 19.952 19.1443 20.2698 19.9733C20.2783 19.9954 20.3168 19.9948 20.3143 19.9681C20.2681 19.4918 20.2868 19.0212 20.3792 18.5512C20.4658 18.1104 20.6718 17.6968 20.7441 17.2556C20.7552 17.1888 20.6725 17.1502 20.6338 17.2103L20.6333 17.2095Z" fill="#FCCA92"/>
<path d="M20.7703 16.331C20.5619 16.5646 20.4613 16.8915 20.3569 17.1817C20.3422 17.2236 20.4088 17.2511 20.429 17.2113C20.5658 16.9359 20.7544 16.6662 20.8387 16.3692C20.849 16.3309 20.7985 16.2996 20.7706 16.3297L20.7703 16.331Z" fill="#FCCA92"/>
<path d="M21.9847 13.4776C22.035 13.7703 22.059 14.0792 22.1841 14.3502C22.2078 14.4024 22.2822 14.3723 22.2851 14.3232C22.3028 14.0247 22.2102 13.7241 22.1505 13.4337C22.1284 13.3245 21.9657 13.3698 21.9843 13.4768L21.9847 13.4776Z" fill="#FCCA92"/>
<path d="M15.1752 24.8953C14.9607 24.664 14.6665 24.5154 14.4294 24.3047C14.155 24.0594 13.9195 23.8068 13.7296 23.489C13.7123 23.459 13.6662 23.4857 13.6826 23.5161C13.9845 24.0726 14.4449 24.8495 15.1089 25.0123C15.1777 25.0287 15.2222 24.9469 15.1756 24.8961L15.1752 24.8953Z" fill="#FCCA92"/>
<path d="M15.4954 25.4432C15.4187 25.4075 15.3474 25.3494 15.3005 25.2794C15.2545 25.2109 15.1225 25.2515 15.1574 25.3382C15.2327 25.5247 15.4708 25.7445 15.6872 25.6444C15.7185 25.6295 15.7185 25.5864 15.6978 25.5638C15.6445 25.505 15.5673 25.4761 15.4967 25.4435L15.4954 25.4432Z" fill="#FCCA92"/>
<path d="M13.5359 19.5985C13.2773 19.6031 13.0266 19.7522 12.7699 19.8011C12.4001 19.871 12.0362 19.8242 11.6952 19.6692C11.6349 19.6414 11.5827 19.7266 11.6433 19.7607C11.974 19.9465 12.326 20.0401 12.7049 20.0513C13.0062 20.0608 13.4316 19.9825 13.603 19.713C13.6337 19.6651 13.5923 19.5972 13.5367 19.598L13.5359 19.5985Z" fill="#FCCA92"/>
<path d="M13.7245 19.1426C13.559 19.1701 13.4133 19.2823 13.2554 19.3378C13.161 19.3707 13.1975 19.518 13.295 19.4887C13.467 19.4369 13.6792 19.3727 13.7767 19.2106C13.7996 19.1736 13.7618 19.1361 13.7245 19.1426Z" fill="#FCCA92"/>
</g>
<defs>
<clipPath id="clip0_166_54">
<rect width="15.23" height="18.9198" fill="white" transform="translate(5.13867 11.8101) rotate(-30)"/>
</clipPath>
</defs>
</svg>
