<svg width="145" height="60" viewBox="0 0 145 60" fill="none" xmlns="http://www.w3.org/2000/svg">
<g clip-path="url(#clip0_163_35)">
<rect width="145" height="60" rx="16" fill="#009684"/>
<circle cx="26.5" cy="55.5" r="55.5" fill="url(#paint0_radial_163_35)"/>
<circle cx="116" cy="30" r="25" fill="url(#paint1_radial_163_35)"/>
<path d="M41.8148 29.2831C43.5187 22.7735 48.1087 19.6509 50.195 18.9068C47.2672 16.5214 39.4224 11.3332 36.3693 25.6388C33.9213 37.0861 28.4341 42.6568 26 44.0129C39.1651 43.3105 39.6937 37.4199 41.8218 29.29L41.8148 29.2831Z" fill="white"/>
<path d="M69.4688 35.4219C70.8984 35.4219 72.0312 34.8945 72.8672 33.8398C73.7109 32.7852 74.1328 31.2852 74.1328 29.3398C74.1328 27.4023 73.7109 25.9062 72.8672 24.8516C72.0312 23.7891 70.8984 23.2578 69.4688 23.2578C68.0391 23.2578 66.8984 23.7852 66.0469 24.8398C65.1953 25.8945 64.7695 27.3945 64.7695 29.3398C64.7695 31.2852 65.1953 32.7852 66.0469 33.8398C66.8984 34.8945 68.0391 35.4219 69.4688 35.4219ZM77.7422 29.3398C77.7422 32.4414 76.8711 34.8164 75.1289 36.4648C73.8242 37.8086 71.9375 38.4805 69.4688 38.4805C67 38.4805 65.1133 37.8086 63.8086 36.4648C62.0586 34.8164 61.1836 32.4414 61.1836 29.3398C61.1836 26.1758 62.0586 23.8008 63.8086 22.2148C65.1133 20.8711 67 20.1992 69.4688 20.1992C71.9375 20.1992 73.8242 20.8711 75.1289 22.2148C76.8711 23.8008 77.7422 26.1758 77.7422 29.3398ZM87.8672 29.8086C87.8047 29.332 87.6445 28.9023 87.3867 28.5195C87.0117 28.0039 86.4297 27.7461 85.6406 27.7461C84.5156 27.7461 83.7461 28.3047 83.332 29.4219C83.1133 30.0156 83.0039 30.8047 83.0039 31.7891C83.0039 32.7266 83.1133 33.4805 83.332 34.0508C83.7305 35.1133 84.4805 35.6445 85.582 35.6445C86.3633 35.6445 86.918 35.4336 87.2461 35.0117C87.5742 34.5898 87.7734 34.043 87.8438 33.3711H91.2539C91.1758 34.3867 90.8086 35.3477 90.1523 36.2539C89.1055 37.7148 87.5547 38.4453 85.5 38.4453C83.4453 38.4453 81.9336 37.8359 80.9648 36.6172C79.9961 35.3984 79.5117 33.8164 79.5117 31.8711C79.5117 29.6758 80.0469 27.9688 81.1172 26.75C82.1875 25.5312 83.6641 24.9219 85.5469 24.9219C87.1484 24.9219 88.457 25.2812 89.4727 26C90.4961 26.7188 91.1016 27.9883 91.2891 29.8086H87.8672ZM100.641 24.8984C101.43 24.8984 102.145 25.0352 102.785 25.3086C103.434 25.582 103.965 26 104.379 26.5625C104.73 27.0391 104.945 27.5312 105.023 28.0391C105.102 28.5391 105.141 29.3594 105.141 30.5V38H101.73V30.2305C101.73 29.543 101.613 28.9883 101.379 28.5664C101.074 27.9727 100.496 27.6758 99.6445 27.6758C98.7617 27.6758 98.0898 27.9727 97.6289 28.5664C97.1758 29.1523 96.9492 29.9922 96.9492 31.0859V38H93.6211V20.7852H96.9492V26.8906C97.4336 26.1484 97.9922 25.6328 98.625 25.3438C99.2656 25.0469 99.9375 24.8984 100.641 24.8984ZM115.312 31.7891C115.102 31.9219 114.887 32.0312 114.668 32.1172C114.457 32.1953 114.164 32.2695 113.789 32.3398L113.039 32.4805C112.336 32.6055 111.832 32.7578 111.527 32.9375C111.012 33.2422 110.754 33.7148 110.754 34.3555C110.754 34.9258 110.91 35.3398 111.223 35.5977C111.543 35.8477 111.93 35.9727 112.383 35.9727C113.102 35.9727 113.762 35.7617 114.363 35.3398C114.973 34.918 115.289 34.1484 115.312 33.0312V31.7891ZM113.285 30.2305C113.902 30.1523 114.344 30.0547 114.609 29.9375C115.086 29.7344 115.324 29.418 115.324 28.9883C115.324 28.4648 115.141 28.1055 114.773 27.9102C114.414 27.707 113.883 27.6055 113.18 27.6055C112.391 27.6055 111.832 27.8008 111.504 28.1914C111.27 28.4805 111.113 28.8711 111.035 29.3633H107.812C107.883 28.2461 108.195 27.3281 108.75 26.6094C109.633 25.4844 111.148 24.9219 113.297 24.9219C114.695 24.9219 115.938 25.1992 117.023 25.7539C118.109 26.3086 118.652 27.3555 118.652 28.8945V34.7539C118.652 35.1602 118.66 35.6523 118.676 36.2305C118.699 36.668 118.766 36.9648 118.875 37.1211C118.984 37.2773 119.148 37.4062 119.367 37.5078V38H115.734C115.633 37.7422 115.562 37.5 115.523 37.2734C115.484 37.0469 115.453 36.7891 115.43 36.5C114.969 37 114.438 37.4258 113.836 37.7773C113.117 38.1914 112.305 38.3984 111.398 38.3984C110.242 38.3984 109.285 38.0703 108.527 37.4141C107.777 36.75 107.402 35.8125 107.402 34.6016C107.402 33.0312 108.008 31.8945 109.219 31.1914C109.883 30.8086 110.859 30.5352 112.148 30.3711L113.285 30.2305Z" fill="white"/>
</g>
<defs>
<radialGradient id="paint0_radial_163_35" cx="0" cy="0" r="1" gradientUnits="userSpaceOnUse" gradientTransform="translate(26.5 55.5) rotate(90) scale(55.5)">
<stop stop-color="#4CB5A9"/>
<stop offset="1" stop-color="#009684"/>
</radialGradient>
<radialGradient id="paint1_radial_163_35" cx="0" cy="0" r="1" gradientUnits="userSpaceOnUse" gradientTransform="translate(116 30) rotate(90) scale(25)">
<stop stop-color="#4CB5A9"/>
<stop offset="1" stop-color="#009684"/>
</radialGradient>
<clipPath id="clip0_163_35">
<rect width="145" height="60" rx="16" fill="white"/>
</clipPath>
</defs>
</svg>
