<svg width="56" height="57" viewBox="0 0 56 57" fill="none" xmlns="http://www.w3.org/2000/svg">
<rect x="0.0987549" y="0.584106" width="55.7333" height="55.7333" rx="27.8666" fill="#F8F7F7"/>
<path d="M25.2853 27.6125C25.2853 27.6125 27.9229 27.4121 27.9229 24.2561C27.9229 21.1026 26.134 19.5481 23.3997 19.5481L14.0326 19.5333V36.9604H23.6175C23.6175 36.9604 28.4099 37.112 28.4099 31.7323C28.4099 31.7323 28.762 27.6125 25.2853 27.6125ZM17.518 22.1474H22.3105C22.3105 22.1474 23.9504 22.1744 23.9504 24.3005C23.9504 26.5042 22.3105 26.5042 22.3105 26.5042H17.518V22.1474ZM22.7461 34.3464H17.518V29.1182H22.7461C22.7461 29.1182 25.3602 29.1452 25.3602 31.7323C25.3602 34.3193 23.1226 34.3464 22.7461 34.3464Z" fill="#111111"/>
<path d="M35.8173 23.8905C29.2708 23.8905 29.2821 30.4257 29.2821 30.4257C29.2821 30.4257 28.8464 36.9608 35.8173 36.9608C35.8173 36.9608 41.9168 36.9608 41.9168 31.7327H38.4313C38.4313 31.7327 38.4313 34.3468 35.8173 34.3468C35.8173 34.3468 33.2032 34.3468 33.2032 30.8613C33.2032 30.8613 40.174 30.8613 41.9168 30.8613C41.9168 29.1186 41.9168 23.8905 35.8173 23.8905ZM33.2032 29.1186C33.2032 29.1186 33.1457 26.5046 35.8173 26.5046C38.488 26.5046 38.4313 29.1186 38.4313 29.1186H33.2032Z" fill="#111111"/>
<path d="M39.3023 21.2762H32.3315V23.019H39.3023V21.2762Z" fill="#111111"/>
</svg>
