<svg width="59" height="57" viewBox="0 0 59 57" fill="none" xmlns="http://www.w3.org/2000/svg">
<rect x="0.229614" y="0.584106" width="58.4348" height="56" rx="28" fill="#FFE9F2"/>
<path d="M29.4627 14.3783C37.3184 14.3783 43.6744 20.7343 43.6744 28.578C43.6744 36.4218 37.3184 42.7896 29.4627 42.7896C21.6071 42.7896 15.2511 36.4337 15.2511 28.5899C15.2511 20.7462 21.6071 14.3783 29.4627 14.3783Z" fill="#E74D89"/>
<path d="M29.4649 43.8015C21.0617 43.8015 14.2296 36.9813 14.2296 28.59C14.2296 20.1869 21.0617 13.3667 29.4649 13.3667C37.868 13.3667 44.7001 20.1869 44.7001 28.5781C44.7001 36.9694 37.868 43.8015 29.4649 43.8015ZM42.3077 30.6611C41.8673 30.5183 38.2846 29.4589 34.2021 30.1017C35.9041 34.7675 36.5945 38.5763 36.7254 39.3618C39.6534 37.3979 41.7364 34.2795 42.3077 30.6611ZM34.5472 40.564C34.3568 39.4213 33.595 35.4459 31.774 30.7087C31.7501 30.7206 31.7144 30.7325 31.6906 30.7325C24.3468 33.2915 21.7163 38.3739 21.4783 38.85C23.6802 40.564 26.4535 41.5876 29.4649 41.5876C31.2621 41.5995 32.988 41.2305 34.5472 40.564ZM19.8 37.2908C20.0976 36.7909 23.6683 30.8872 30.3814 28.7091C30.548 28.6496 30.7265 28.6019 30.8932 28.5543C30.5718 27.8164 30.2147 27.0784 29.8338 26.3524C23.3351 28.2925 17.0267 28.2092 16.4554 28.1973C16.4554 28.3282 16.4435 28.4591 16.4435 28.59C16.4554 31.9347 17.7171 34.9817 19.8 37.2908ZM16.7291 25.9358C17.3124 25.9477 22.6685 25.9715 28.7626 24.3527C26.6083 20.5201 24.2754 17.3064 23.9421 16.8422C20.288 18.5562 17.5742 21.9127 16.7291 25.9358ZM26.4178 15.9615C26.7749 16.4376 29.1435 19.6512 31.274 23.5672C35.9041 21.8294 37.8561 19.2108 38.0942 18.8776C35.797 16.8422 32.7738 15.6044 29.4649 15.6044C28.4174 15.6044 27.3938 15.7353 26.4178 15.9615ZM39.5344 20.3773C39.2606 20.7463 37.0825 23.5434 32.2739 25.5073C32.5714 26.1262 32.869 26.7571 33.1427 27.3879C33.238 27.614 33.3332 27.8402 33.4284 28.0544C37.7609 27.5069 42.0577 28.3877 42.4862 28.471C42.4505 25.4121 41.3555 22.5912 39.5344 20.3773Z" fill="#B2215A"/>
</svg>
