<svg width="56" height="57" viewBox="0 0 56 57" fill="none" xmlns="http://www.w3.org/2000/svg">
<rect x="0.266724" y="0.584106" width="55.7333" height="55.7333" rx="27.8666" fill="#F8F7F7"/>
<path fill-rule="evenodd" clip-rule="evenodd" d="M28.1191 13.3667C19.4567 13.3667 12.4406 20.3487 12.4406 28.969C12.4406 35.873 16.9285 41.7044 23.1607 43.7717C23.9447 43.9082 24.2386 43.4401 24.2386 43.0306C24.2386 42.66 24.219 41.4313 24.219 40.1246C20.2798 40.8462 19.2607 39.169 18.9471 38.2914C18.7708 37.8428 18.0064 36.4581 17.3401 36.0875C16.7913 35.795 16.0074 35.0734 17.3205 35.0539C18.5552 35.0344 19.4371 36.1851 19.7311 36.6531C21.1421 39.013 23.3959 38.3499 24.2974 37.9403C24.4346 36.9262 24.8462 36.2436 25.2969 35.8535C21.8085 35.4635 18.1632 34.1178 18.1632 28.1499C18.1632 26.4531 18.7708 25.0489 19.7703 23.9568C19.6135 23.5667 19.0647 21.9675 19.927 19.8221C19.927 19.8221 21.2401 19.4126 24.2386 21.4214C25.4929 21.0703 26.8256 20.8948 28.1583 20.8948C29.4909 20.8948 30.8236 21.0703 32.0779 21.4214C35.0764 19.3931 36.3895 19.8221 36.3895 19.8221C37.2518 21.9675 36.7031 23.5667 36.5463 23.9568C37.5458 25.0489 38.1533 26.4336 38.1533 28.1499C38.1533 34.1373 34.4885 35.4635 31 35.8535C31.5684 36.3411 32.0583 37.2772 32.0583 38.7399C32.0583 40.8267 32.0387 42.504 32.0387 43.0306C32.0387 43.4401 32.3327 43.9277 33.1166 43.7717C39.3096 41.7044 43.7976 35.8535 43.7976 28.969C43.7976 20.3487 36.7815 13.3667 28.1191 13.3667Z" fill="#1B1F23"/>
</svg>
