<svg width="56" height="57" viewBox="0 0 56 57" fill="none" xmlns="http://www.w3.org/2000/svg">
<rect x="0.0987549" y="0.416016" width="55.7333" height="55.7333" rx="27.8666" fill="#FCF2FF"/>
<path d="M22.8912 28.2826C22.8912 25.4812 25.1629 23.2097 27.9659 23.2097C30.7689 23.2097 33.0418 25.4812 33.0418 28.2826C33.0418 31.0839 30.7689 33.3554 27.9659 33.3554C25.1629 33.3554 22.8912 31.0839 22.8912 28.2826ZM20.1473 28.2826C20.1473 32.5982 23.6477 36.0965 27.9659 36.0965C32.2841 36.0965 35.7845 32.5982 35.7845 28.2826C35.7845 23.9669 32.2841 20.4686 27.9659 20.4686C23.6477 20.4686 20.1473 23.9669 20.1473 28.2826ZM34.2669 20.1588C34.2667 20.52 34.3738 20.8731 34.5744 21.1734C34.7751 21.4738 35.0603 21.708 35.3942 21.8463C35.728 21.9847 36.0953 22.021 36.4498 21.9507C36.8043 21.8804 37.1299 21.7066 37.3856 21.4513C37.6412 21.196 37.8153 20.8707 37.886 20.5165C37.9566 20.1623 37.9206 19.7951 37.7824 19.4614C37.6443 19.1277 37.4102 18.8424 37.1098 18.6416C36.8094 18.4408 36.4562 18.3336 36.0948 18.3334H36.0941C35.6097 18.3337 35.1452 18.526 34.8026 18.8683C34.46 19.2105 34.2673 19.6747 34.2669 20.1588ZM21.8144 40.6692C20.3299 40.6016 19.523 40.3545 18.9868 40.1457C18.2759 39.8691 17.7686 39.5397 17.2353 39.0074C16.7021 38.4752 16.3719 37.9688 16.0964 37.2583C15.8874 36.7226 15.6401 35.916 15.5726 34.4324C15.4988 32.8283 15.4841 32.3465 15.4841 28.2827C15.4841 24.2189 15.5 23.7384 15.5726 22.133C15.6402 20.6494 15.8893 19.8444 16.0964 19.3071C16.3732 18.5966 16.7028 18.0897 17.2353 17.5568C17.7679 17.0238 18.2746 16.6939 18.9868 16.4185C19.5227 16.2096 20.3299 15.9625 21.8144 15.895C23.4194 15.8212 23.9015 15.8065 27.9659 15.8065C32.0303 15.8065 32.5129 15.8225 34.1192 15.895C35.6038 15.9626 36.4093 16.2115 36.9469 16.4185C37.6578 16.6939 38.165 17.0245 38.6983 17.5568C39.2316 18.089 39.5605 18.5966 39.8372 19.3071C40.0463 19.8428 40.2935 20.6494 40.361 22.133C40.4348 23.7384 40.4496 24.2189 40.4496 28.2827C40.4496 32.3465 40.4348 32.827 40.361 34.4324C40.2934 35.916 40.0449 36.7224 39.8372 37.2583C39.5605 37.9688 39.2309 38.4757 38.6983 39.0074C38.1657 39.5392 37.6578 39.8691 36.9469 40.1457C36.4109 40.3546 35.6038 40.6017 34.1192 40.6692C32.5142 40.7429 32.0321 40.7577 27.9659 40.7577C23.8997 40.7577 23.4189 40.7429 21.8144 40.6692ZM21.6883 13.1573C20.0674 13.2311 18.9597 13.488 17.9924 13.8642C16.9906 14.2526 16.1426 14.7738 15.2951 15.6194C14.4477 16.465 13.9275 17.3139 13.5388 18.3151C13.1624 19.2824 12.9054 20.3888 12.8316 22.0088C12.7566 23.6313 12.7394 24.15 12.7394 28.2826C12.7394 32.4151 12.7566 32.9339 12.8316 34.5564C12.9054 36.1765 13.1624 37.2827 13.5388 38.2501C13.9275 39.2507 14.4478 40.1005 15.2951 40.9458C16.1424 41.791 16.9906 42.3114 17.9924 42.701C18.9615 43.0772 20.0674 43.334 21.6883 43.4078C23.3127 43.4816 23.8309 43.5 27.9659 43.5C32.1009 43.5 32.62 43.4828 34.2435 43.4078C35.8646 43.334 36.9715 43.0772 37.9394 42.701C38.9406 42.3114 39.7892 41.7914 40.6367 40.9458C41.4841 40.1002 42.0032 39.2507 42.393 38.2501C42.7694 37.2827 43.0276 36.1764 43.1002 34.5564C43.174 32.9326 43.1912 32.4151 43.1912 28.2826C43.1912 24.15 43.174 23.6313 43.1002 22.0088C43.0264 20.3886 42.7694 19.2818 42.393 18.3151C42.0032 17.3145 41.4828 16.4663 40.6367 15.6194C39.7906 14.7725 38.9406 14.2526 37.9406 13.8642C36.9715 13.488 35.8644 13.2299 34.2447 13.1573C32.6212 13.0836 32.1022 13.0652 27.9671 13.0652C23.8321 13.0652 23.3127 13.0824 21.6883 13.1573Z" fill="url(#paint0_radial_166_81)"/>
<path d="M22.8912 28.2826C22.8912 25.4812 25.1629 23.2097 27.9659 23.2097C30.7689 23.2097 33.0418 25.4812 33.0418 28.2826C33.0418 31.0839 30.7689 33.3554 27.9659 33.3554C25.1629 33.3554 22.8912 31.0839 22.8912 28.2826ZM20.1473 28.2826C20.1473 32.5982 23.6477 36.0965 27.9659 36.0965C32.2841 36.0965 35.7845 32.5982 35.7845 28.2826C35.7845 23.9669 32.2841 20.4686 27.9659 20.4686C23.6477 20.4686 20.1473 23.9669 20.1473 28.2826ZM34.2669 20.1588C34.2667 20.52 34.3738 20.8731 34.5744 21.1734C34.7751 21.4738 35.0603 21.708 35.3942 21.8463C35.728 21.9847 36.0953 22.021 36.4498 21.9507C36.8043 21.8804 37.1299 21.7066 37.3856 21.4513C37.6412 21.196 37.8153 20.8707 37.886 20.5165C37.9566 20.1623 37.9206 19.7951 37.7824 19.4614C37.6443 19.1277 37.4102 18.8424 37.1098 18.6416C36.8094 18.4408 36.4562 18.3336 36.0948 18.3334H36.0941C35.6097 18.3337 35.1452 18.526 34.8026 18.8683C34.46 19.2105 34.2673 19.6747 34.2669 20.1588ZM21.8144 40.6692C20.3299 40.6016 19.523 40.3545 18.9868 40.1457C18.2759 39.8691 17.7686 39.5397 17.2353 39.0074C16.7021 38.4752 16.3719 37.9688 16.0964 37.2583C15.8874 36.7226 15.6401 35.916 15.5726 34.4324C15.4988 32.8283 15.4841 32.3465 15.4841 28.2827C15.4841 24.2189 15.5 23.7384 15.5726 22.133C15.6402 20.6494 15.8893 19.8444 16.0964 19.3071C16.3732 18.5966 16.7028 18.0897 17.2353 17.5568C17.7679 17.0238 18.2746 16.6939 18.9868 16.4185C19.5227 16.2096 20.3299 15.9625 21.8144 15.895C23.4194 15.8212 23.9015 15.8065 27.9659 15.8065C32.0303 15.8065 32.5129 15.8225 34.1192 15.895C35.6038 15.9626 36.4093 16.2115 36.9469 16.4185C37.6578 16.6939 38.165 17.0245 38.6983 17.5568C39.2316 18.089 39.5605 18.5966 39.8372 19.3071C40.0463 19.8428 40.2935 20.6494 40.361 22.133C40.4348 23.7384 40.4496 24.2189 40.4496 28.2827C40.4496 32.3465 40.4348 32.827 40.361 34.4324C40.2934 35.916 40.0449 36.7224 39.8372 37.2583C39.5605 37.9688 39.2309 38.4757 38.6983 39.0074C38.1657 39.5392 37.6578 39.8691 36.9469 40.1457C36.4109 40.3546 35.6038 40.6017 34.1192 40.6692C32.5142 40.7429 32.0321 40.7577 27.9659 40.7577C23.8997 40.7577 23.4189 40.7429 21.8144 40.6692ZM21.6883 13.1573C20.0674 13.2311 18.9597 13.488 17.9924 13.8642C16.9906 14.2526 16.1426 14.7738 15.2951 15.6194C14.4477 16.465 13.9275 17.3139 13.5388 18.3151C13.1624 19.2824 12.9054 20.3888 12.8316 22.0088C12.7566 23.6313 12.7394 24.15 12.7394 28.2826C12.7394 32.4151 12.7566 32.9339 12.8316 34.5564C12.9054 36.1765 13.1624 37.2827 13.5388 38.2501C13.9275 39.2507 14.4478 40.1005 15.2951 40.9458C16.1424 41.791 16.9906 42.3114 17.9924 42.701C18.9615 43.0772 20.0674 43.334 21.6883 43.4078C23.3127 43.4816 23.8309 43.5 27.9659 43.5C32.1009 43.5 32.62 43.4828 34.2435 43.4078C35.8646 43.334 36.9715 43.0772 37.9394 42.701C38.9406 42.3114 39.7892 41.7914 40.6367 40.9458C41.4841 40.1002 42.0032 39.2507 42.393 38.2501C42.7694 37.2827 43.0276 36.1764 43.1002 34.5564C43.174 32.9326 43.1912 32.4151 43.1912 28.2826C43.1912 24.15 43.174 23.6313 43.1002 22.0088C43.0264 20.3886 42.7694 19.2818 42.393 18.3151C42.0032 17.3145 41.4828 16.4663 40.6367 15.6194C39.7906 14.7725 38.9406 14.2526 37.9406 13.8642C36.9715 13.488 35.8644 13.2299 34.2447 13.1573C32.6212 13.0836 32.1022 13.0652 27.9671 13.0652C23.8321 13.0652 23.3127 13.0824 21.6883 13.1573Z" fill="url(#paint1_radial_166_81)"/>
<defs>
<radialGradient id="paint0_radial_166_81" cx="0" cy="0" r="1" gradientUnits="userSpaceOnUse" gradientTransform="translate(16.7852 43.6437) scale(39.7539 39.7301)">
<stop offset="0.09" stop-color="#FA8F21"/>
<stop offset="0.78" stop-color="#D82D7E"/>
</radialGradient>
<radialGradient id="paint1_radial_166_81" cx="0" cy="0" r="1" gradientUnits="userSpaceOnUse" gradientTransform="translate(31.2078 45.0072) scale(31.3316 31.3128)">
<stop offset="0.64" stop-color="#8C3AAA" stop-opacity="0"/>
<stop offset="1" stop-color="#8C3AAA"/>
</radialGradient>
</defs>
</svg>
