<svg width="56" height="57" viewBox="0 0 56 57" fill="none" xmlns="http://www.w3.org/2000/svg">
<rect x="0.266724" y="0.416016" width="55.7333" height="55.7333" rx="27.8666" fill="#F2F4FF"/>
<path d="M13.048 15.38C13.048 14.176 14.056 13.1986 15.2986 13.1986H41.2503C42.4935 13.1986 43.501 14.176 43.501 15.38V41.4706C43.501 42.675 42.4935 43.6517 41.2503 43.6517H15.2986C14.0561 43.6517 13.048 42.6751 13.048 41.4709V15.3797V15.38Z" fill="#006699"/>
<path d="M22.3013 38.6838V24.9738H17.7443V38.6838H22.3018H22.3013ZM20.0238 23.1022C21.6126 23.1022 22.6017 22.0494 22.6017 20.7338C22.572 19.3881 21.6126 18.3647 20.054 18.3647C18.4943 18.3647 17.4757 19.3881 17.4757 20.7337C17.4757 22.0493 18.4645 23.1021 19.9939 23.1021H20.0234L20.0238 23.1022ZM24.8237 38.6838H29.3803V31.0283C29.3803 30.6191 29.4101 30.2088 29.5305 29.9166C29.8597 29.0975 30.6095 28.2497 31.8687 28.2497C33.5172 28.2497 34.1771 29.5069 34.1771 31.3501V38.6838H38.7336V30.8229C38.7336 26.6119 36.4858 24.6523 33.4877 24.6523C31.0297 24.6523 29.9502 26.0262 29.3504 26.9619H29.3807V24.9742H24.8239C24.8834 26.2604 24.8236 38.6843 24.8236 38.6843L24.8237 38.6838Z" fill="white"/>
</svg>
