<svg width="414" height="370" viewBox="0 0 414 370" fill="none" xmlns="http://www.w3.org/2000/svg">
<g clip-path="url(#clip0_283_903)">
<path d="M196.57 70.01H38.3V278.68H196.57V70.01Z" fill="#8DE3D9"/>
<path d="M354.51 70.01H196.24V280.41H354.51V70.01Z" fill="#9782CC"/>
<path d="M393.34 308.39C393.26 308.77 393.12 309.15 393.1 309.54C392.967 311.347 392.023 312.25 390.27 312.25C348.19 312.25 306.11 312.24 264.03 312.25C247.52 312.25 231 312.33 214.49 312.37C213.99 312.37 213.49 312.42 212.89 312.46V355.17C213.61 355.17 214.22 355.17 214.83 355.17C220.64 355.17 226.45 354.99 232.25 355.23C240.34 355.57 247.14 358.64 251.86 365.53C252.02 365.76 252.22 365.99 252.32 366.25C252.63 367.07 252.9 367.91 253.19 368.73C252.35 368.93 251.5 369.31 250.66 369.32C228.28 369.4 205.91 369.48 183.53 369.49C169.86 369.49 156.2 369.41 142.53 369.32C141.74 369.32 140.96 368.94 140.17 368.73C140.43 367.95 140.55 367.08 140.96 366.4C144.56 360.52 149.88 357.18 156.58 355.8C162.45 354.59 168.37 355.46 174.26 355.2C176.29 355.11 178.33 355.19 180.46 355.19V312.39C179.76 312.39 179.05 312.39 178.34 312.39C120.15 312.35 61.95 312.31 3.76001 312.27C1.66001 312.27 0.486676 311.25 0.24001 309.21C0.21001 308.94 0.0900098 308.67 0.0100098 308.41V306.7C0.11001 305.29 0.29001 303.88 0.29001 302.46C0.29001 284.7 0.22001 266.93 0.22001 249.17C0.24001 181.7 0.27001 114.23 0.29001 46.76C0.29001 45.12 0.11001 43.48 0.0100098 41.84V40.13C0.10001 39.47 0.28001 38.8 0.25001 38.14C0.17001 36.69 0.90001 36.2 2.21001 36.26C2.66001 36.28 3.12001 36.26 3.58001 36.26C46.09 36.26 88.59 36.26 131.1 36.26C132.74 36.26 134.38 36.11 136.03 36.03H257.01C258.82 36.11 260.64 36.26 262.45 36.26C305.01 36.27 347.57 36.26 390.12 36.26C391.993 36.26 392.993 37.1667 393.12 38.98C393.15 39.37 393.28 39.75 393.36 40.13V41.5C393.26 43.14 393.08 44.78 393.08 46.42C393.09 65.04 393.16 83.66 393.16 102.27C393.14 168.77 393.1 235.27 393.08 301.77C393.08 303.52 393.26 305.28 393.36 307.03V308.4L393.34 308.39ZM1.73001 295.87H391.53V37.53H1.73001V295.87ZM1.71001 310.96H391.73V297.25H1.71001V310.96ZM181.95 312.48V355.04H211.42V312.48H181.95ZM141.51 368.06H251.76C250.05 364.93 247.94 362.5 245.14 360.62C240.78 357.7 235.92 356.46 230.76 356.41C223.47 356.35 216.18 356.5 208.89 356.5C193.4 356.49 177.91 356.36 162.42 356.42C156.71 356.44 151.41 358.04 146.83 361.62C144.65 363.32 143.05 365.47 141.51 368.06Z" fill="black"/>
<path d="M1.72998 37.53V295.87H391.53V37.53H1.72998ZM355.12 278.57H38.3V70.01H355.12V278.57Z" fill="#F2F2F2"/>
<path d="M1.71002 297.25V310.95H391.73V297.25H1.71002ZM364.15 308.38C361.83 308.39 359.89 306.49 359.86 304.18C359.82 301.79 361.81 299.81 364.19 299.85C366.51 299.89 368.4 301.81 368.39 304.14C368.38 306.45 366.45 308.37 364.15 308.38ZM377.04 308.38C374.73 308.34 372.83 306.39 372.85 304.08C372.86 301.77 374.79 299.85 377.09 299.85C379.41 299.84 381.35 301.74 381.38 304.06C381.41 306.44 379.42 308.42 377.04 308.37V308.38Z" fill="#F2F2F2"/>
<path d="M211.41 312.47H181.94V355.03H211.41V312.47Z" fill="#CAB1E6"/>
<path d="M251.76 368.05H141.51C143.05 365.47 144.66 363.32 146.84 361.61C148.75 360.11 150.78 358.96 152.93 358.14C155.92 356.97 159.1 356.43 162.43 356.42C177.92 356.36 193.41 356.49 208.91 356.51C216.2 356.51 223.49 356.35 230.78 356.42C235.93 356.46 240.79 357.7 245.16 360.62C247.11 361.93 248.73 363.51 250.12 365.42C250.72 366.23 251.26 367.11 251.77 368.05H251.76Z" fill="#9785AD"/>
<path d="M38.3 70.01V278.57H355.12V70.01H38.3ZM39.57 70.96H353.83C353.86 71.56 353.93 72.16 353.93 72.74C353.93 93.81 353.93 114.89 353.92 135.96C353.92 138.52 353.83 141.09 353.81 143.65C353.78 146.28 352.1 148.48 349.25 149.52C346.5 150.52 344.28 149.98 342.46 147.85C341.92 147.21 341.42 146.5 340.94 145.8C337 139.88 329.18 140.57 325.55 144.22C323.77 146 322.22 148.15 321.08 150.39C319.51 153.48 318.36 156.78 317.18 160.04C315.43 164.87 313.41 169.57 310.43 173.79C308.66 176.3 306.51 178.36 303.65 179.6C299.61 181.37 295.7 179.44 295.04 175.11C294.66 172.6 294.81 170.01 294.76 167.46C294.72 165.54 294.92 163.59 294.7 161.68C293.57 151.27 282.04 146.15 273.54 152.24C269.84 154.89 267.05 158.32 265.27 162.48C263.82 165.88 262.56 169.37 261.2 172.8C257.84 181.3 253.04 188.69 245.18 193.76C244.67 194.09 244.14 194.39 243.59 194.71C242.15 191.31 240.74 188.07 239.43 184.8C232.11 166.57 224.83 148.35 217.5 130.14C215.46 125.07 213.24 120.07 211.16 115.02C210.6 113.65 209.81 113.21 208.33 113.23C200.66 113.32 192.97 113.33 185.28 113.23C183.57 113.2 182.73 113.76 182.1 115.29C178 125.41 173.81 135.51 169.7 145.63C165.34 156.32 161.03 167.05 156.7 177.77C155.87 179.81 155.06 181.86 154.18 184.06C151.84 182.45 149.61 180.9 147.39 179.35C137.49 172.46 126.97 166.83 115.07 164.37C98.5801 160.95 82.4801 161.47 66.9801 167.13C64.1701 168.16 61.38 169.35 58.62 170.72C51.97 174.02 46.32 178.68 41.59 184.45C41.08 185.05 40.52 185.62 40 186.19C39.87 186.15 39.73 186.1 39.6 186.08V70.96H39.57ZM217.5 198.02C217.3 197.55 217.19 197.05 217 196.57C216.4 194.98 215.43 194.21 213.54 194.22C202.85 194.32 192.14 194.29 181.43 194.25C179.14 194.24 176.87 193.98 176.23 197.04C168.53 193.98 161.75 189.76 155.18 184.81C156.29 182.09 157.42 179.43 158.47 176.74C163.18 164.82 167.83 152.89 172.58 141C175.87 132.74 179.3 124.55 182.6 116.31C183.18 114.87 183.91 114.27 185.58 114.3C193.04 114.41 200.5 114.4 207.95 114.31C209.39 114.3 210.07 114.74 210.58 116.03C215.55 128.63 220.56 141.22 225.6 153.81C228.75 161.68 231.94 169.54 235.14 177.39C237.56 183.34 240.01 189.28 242.53 195.42C237.08 198.67 231.37 200.72 225.4 202.07C225.23 202.11 225.06 202.14 224.89 202.17C217.98 203.25 220.22 204.35 217.49 198.03L217.5 198.02ZM218.27 203.27C204 204.45 190.4 203.14 177.33 197.49C177.63 195.84 178.38 195.35 179.86 195.37C191.11 195.43 202.36 195.43 213.61 195.38C214.76 195.37 215.33 195.68 215.72 196.79C216.42 198.88 217.31 200.9 218.27 203.27ZM353.74 277.5H39.41V275.34C39.41 255.23 39.4 235.13 39.42 215.02C39.42 206.65 39.4801 198.27 39.5801 189.9C39.5901 189.07 39.92 188.11 40.42 187.45C40.9 186.81 41.39 186.2 41.89 185.58C42.33 185.04 42.7901 184.5 43.2401 183.99C44.2101 182.89 45.21 181.85 46.23 180.86C46.23 180.85 46.26 180.83 46.26 180.83C46.77 180.33 47.2901 179.86 47.8101 179.39C48.3201 178.92 48.8501 178.48 49.3801 178.02C49.3901 178.02 49.41 178.01 49.41 178.01C50.48 177.13 51.57 176.3 52.68 175.52C52.71 175.49 52.74 175.46 52.78 175.45C53.83 174.71 54.92 174.01 56.03 173.34C56.69 172.94 57.34 172.57 58.01 172.22C58.59 171.89 59.18 171.58 59.78 171.28C59.82 171.27 59.87 171.24 59.91 171.21C60.51 170.93 61.1101 170.64 61.7001 170.37C62.3301 170.07 62.97 169.8 63.59 169.53C64.23 169.26 64.87 169 65.53 168.76C66.17 168.52 66.8301 168.28 67.4801 168.05C68.1101 167.84 68.7301 167.62 69.3601 167.42C70.0401 167.21 70.7401 166.99 71.4401 166.79C72.1101 166.6 72.79 166.42 73.46 166.25C74.14 166.08 74.8301 165.92 75.5101 165.77C76.0201 165.64 76.54 165.54 77.06 165.43C78.63 165.1 80.2101 164.82 81.8001 164.58C82.5101 164.47 83.24 164.37 83.95 164.27C106.41 161.28 126.9 166.51 145.41 179.61C151.12 183.65 156.76 187.85 162.7 191.54C182.32 203.76 203.52 207.77 226.25 203.19C231.58 202.11 236.6 200.09 241.43 197.58C251.75 192.2 258.43 183.74 262.5 173C263.84 169.48 265.13 165.97 266.66 162.53C268.48 158.43 271.33 155.11 275.16 152.72C282.72 148.01 292.79 153.09 293.46 161.99C293.63 164.25 293.35 166.55 293.4 168.81C293.44 171.15 293.41 173.51 293.86 175.76C294.77 180.49 299.14 182.74 303.64 180.99C306.53 179.87 308.84 177.96 310.7 175.51C314.1 171.08 316.3 166.03 318.23 160.83C319.6 157.16 320.98 153.47 322.7 149.95C324.39 146.5 326.83 143.64 330.97 142.92C334.47 142.29 337.38 143.28 339.58 146.14C339.92 146.6 340.25 147.05 340.58 147.52C343.84 152.03 348.61 152.56 352.75 148.84C352.99 148.63 353.23 148.43 353.73 147.99V277.52L353.74 277.5Z" fill="black"/>
<path d="M364.19 299.86C361.81 299.82 359.82 301.8 359.86 304.19C359.89 306.5 361.82 308.4 364.15 308.39C366.46 308.38 368.38 306.45 368.39 304.15C368.4 301.83 366.51 299.91 364.19 299.86ZM364.02 307.02C362.51 306.96 361.24 305.67 361.23 304.14C361.22 302.56 362.55 301.21 364.13 301.22C365.71 301.23 367.05 302.6 367.01 304.18C366.98 305.76 365.6 307.07 364.02 307.01V307.02Z" fill="black"/>
<path d="M377.09 299.86C374.78 299.86 372.86 301.78 372.85 304.09C372.82 306.4 374.73 308.35 377.04 308.39C379.42 308.43 381.41 306.45 381.38 304.08C381.35 301.76 379.42 299.85 377.09 299.87V299.86ZM377.05 307.02C375.54 306.99 374.26 305.71 374.22 304.2C374.18 302.62 375.5 301.24 377.08 301.22C378.66 301.21 380.01 302.54 380.01 304.12C380 305.71 378.63 307.04 377.05 307.01V307.02Z" fill="black"/>
<path d="M353.74 147.97V277.5H39.41V275.34C39.41 255.23 39.4 235.13 39.42 215.02C39.42 206.65 39.48 198.27 39.58 189.9C39.59 189.07 39.92 188.11 40.42 187.45C47.71 177.75 56.95 171.69 67.47 168.04C72.68 166.23 78.19 165.02 83.94 164.25C106.4 161.26 126.89 166.49 145.4 179.59C151.11 183.63 156.75 187.83 162.69 191.52C182.31 203.74 203.51 207.75 226.24 203.17C231.57 202.09 236.59 200.07 241.42 197.56C251.74 192.18 258.42 183.72 262.49 172.98C263.83 169.46 265.12 165.95 266.65 162.51C268.47 158.41 271.32 155.09 275.15 152.7C282.71 147.99 292.78 153.07 293.45 161.97C293.62 164.23 293.34 166.53 293.39 168.79C293.43 171.13 293.4 173.49 293.85 175.74C294.76 180.47 299.13 182.72 303.63 180.97C306.52 179.85 308.83 177.94 310.69 175.49C314.09 171.06 316.29 166.01 318.22 160.81C319.59 157.14 320.97 153.45 322.69 149.93C324.38 146.48 326.82 143.62 330.96 142.9C334.46 142.27 337.37 143.26 339.57 146.12C339.91 146.58 340.24 147.03 340.57 147.5C343.83 152.01 348.6 152.54 352.74 148.82C352.98 148.61 353.22 148.41 353.72 147.97H353.74Z" fill="#FFD384"/>
<path d="M340.58 147.5C340.25 147.03 339.92 146.57 339.58 146.12C337.37 143.26 334.47 142.28 330.97 142.9C326.83 143.63 324.39 146.49 322.7 149.93C320.98 153.45 319.6 157.13 318.23 160.81C316.29 166.01 314.1 171.06 310.7 175.49C308.83 177.94 306.53 179.85 303.64 180.97C299.14 182.72 294.77 180.47 293.86 175.74C293.42 173.49 293.45 171.13 293.4 168.79C293.34 166.53 293.63 164.23 293.46 161.97C292.79 153.07 282.72 147.99 275.16 152.7C271.33 155.09 268.48 158.41 266.66 162.51C265.14 165.94 263.84 169.46 262.5 172.98C258.43 183.72 251.75 192.17 241.43 197.56C236.6 200.07 231.58 202.09 226.25 203.17C215.93 205.25 205.93 205.54 196.25 204.11V277.49H353.75V147.96C353.25 148.4 353.01 148.6 352.77 148.81C348.63 152.53 343.86 152 340.6 147.49L340.58 147.5Z" fill="#CAB1E6"/>
<path d="M242.54 195.41C237.08 198.67 231.38 200.71 225.41 202.07C225.24 202.11 225.08 202.14 224.91 202.17C217.99 203.25 220.23 204.34 217.5 198.02C217.3 197.55 217.18 197.05 217 196.57C216.4 194.98 215.43 194.21 213.54 194.23C202.83 194.32 192.13 194.3 181.42 194.25C179.14 194.24 176.86 193.98 176.23 197.04C168.52 193.98 161.74 189.76 155.18 184.81C156.29 182.09 157.41 179.42 158.47 176.73C163.18 164.82 167.83 152.89 172.57 140.99C175.86 132.74 179.3 124.55 182.6 116.31C183.18 114.86 183.9 114.27 185.57 114.3C193.03 114.41 200.49 114.4 207.94 114.31C209.37 114.29 210.06 114.74 210.57 116.04C215.54 128.64 220.55 141.23 225.58 153.81C228.73 161.68 231.93 169.54 235.12 177.4C237.54 183.35 239.99 189.28 242.51 195.42L242.54 195.41ZM196.61 175.15C199.74 175.15 202.87 175.17 206 175.15C207.87 175.14 208.14 174.72 207.48 173.01C204.23 164.51 200.98 156.01 197.7 147.52C197.51 147.04 197.05 146.66 196.72 146.24C196.34 146.68 195.81 147.06 195.61 147.57C192.32 156.06 189.08 164.56 185.83 173.06C185.2 174.7 185.47 175.13 187.22 175.14C190.35 175.17 193.48 175.14 196.61 175.15Z" fill="#F2F2F2"/>
<path d="M225.61 153.8C220.58 141.22 215.57 128.63 210.6 116.03C210.09 114.73 209.4 114.28 207.97 114.3C204.33 114.34 200.69 114.36 197.05 114.37V146.59C197.32 146.88 197.59 147.17 197.72 147.51C201 156 204.24 164.5 207.5 173C208.15 174.71 207.89 175.13 206.02 175.14C203.03 175.16 200.05 175.14 197.06 175.14V194.28C202.56 194.28 208.07 194.27 213.57 194.22C215.45 194.2 216.43 194.97 217.03 196.56C217.21 197.04 217.32 197.54 217.53 198.01C220.26 204.33 218.02 203.24 224.94 202.16C225.11 202.13 225.28 202.1 225.44 202.06C231.41 200.7 237.11 198.66 242.57 195.4C240.05 189.27 237.6 183.33 235.18 177.38C231.98 169.52 228.79 161.67 225.64 153.79L225.61 153.8Z" fill="#CAB1E6"/>
<path d="M364.14 301.22C365.72 301.22 367.05 302.6 367.02 304.18C366.99 305.77 365.61 307.07 364.03 307.02C362.52 306.97 361.25 305.67 361.24 304.15C361.23 302.57 362.57 301.22 364.15 301.22H364.14Z" fill="#9785AD"/>
<path d="M377.08 301.22C378.66 301.2 380.01 302.55 380.01 304.13C380.01 305.71 378.64 307.05 377.06 307.01C375.54 306.98 374.26 305.7 374.22 304.19C374.18 302.61 375.5 301.24 377.08 301.22Z" fill="#9785AD"/>
<path d="M196.61 175.15C193.48 175.15 190.35 175.17 187.22 175.15C185.47 175.13 185.2 174.7 185.83 173.07C189.08 164.57 192.33 156.07 195.61 147.58C195.81 147.07 196.34 146.69 196.72 146.25C197.05 146.67 197.52 147.05 197.7 147.53C200.98 156.02 204.22 164.52 207.48 173.02C208.13 174.73 207.87 175.15 206 175.16C202.87 175.18 199.74 175.16 196.61 175.16V175.15ZM206.34 173.88C203.08 165.25 199.88 156.78 196.66 148.25C193.44 156.79 190.24 165.27 186.99 173.88H206.34Z" fill="black"/>
<g style="mix-blend-mode:multiply" opacity="0.5">
<path d="M40.42 187.45C39.92 188.11 39.59 189.07 39.58 189.9C39.48 198.27 39.42 206.65 39.42 215.02C39.39 235.13 39.41 255.23 39.41 275.34V277.5H353.74V273.77C297.47 276.25 222.86 281.74 168.53 263.75C120.39 247.82 92.97 212.29 67.48 168.05C56.96 171.7 47.72 177.76 40.43 187.46L40.42 187.45Z" fill="#FFD384"/>
</g>
<g style="mix-blend-mode:multiply" opacity="0.35">
<path d="M39.5701 186.09C39.7001 186.12 39.8401 186.16 39.9701 186.2C40.5001 185.63 41.0501 185.06 41.5601 184.46C46.2901 178.69 51.9401 174.04 58.5901 170.73C61.3501 169.36 64.1401 168.17 66.9501 167.14C62.7501 159.75 59.1201 151.98 56.1301 143.83C47.4301 120.14 44.6401 95.67 43.8301 70.95H39.5701V186.07V186.09Z" fill="#FF8E84"/>
</g>
<g style="mix-blend-mode:multiply" opacity="0.5">
<path d="M355.12 273.71V278.57H38.3V70.01H43.8C43.44 59.22 43.47 48.37 43.54 37.53H1.72998V295.87H391.53V271.98C379.41 272.54 367.27 273.16 355.12 273.72V273.71Z" fill="#E2E2E2"/>
</g>
<g style="mix-blend-mode:multiply" opacity="0.5">
<path d="M211.42 312.47H181.95V355.03H211.42V351.87C209.47 351.76 207.52 351.66 205.58 351.57C199.93 350.83 194.49 349.08 190.64 344.56C189.47 343.18 188.55 341.7 187.82 340.15C187.38 337.89 186.92 335.68 186.75 333.69C186.37 329.05 186.95 323.84 186.39 319.05C194.73 319.18 203.06 319.29 211.41 319.41V312.48L211.42 312.47ZM1.71002 297.25V310.95H391.73V297.25H1.71002Z" fill="#CAB1E6"/>
</g>
<g style="mix-blend-mode:multiply" opacity="0.35">
<path d="M251.76 368.05H141.51C143.05 365.47 144.66 363.32 146.84 361.61C148.75 360.11 150.78 358.96 152.93 358.14C155.08 366.67 170.59 365.57 177.55 365.81C185.94 366.09 194.31 366.27 202.7 366.29C218.51 366.36 234.31 366.03 250.12 365.41C250.72 366.22 251.26 367.1 251.77 368.04L251.76 368.05Z" fill="#9785AD"/>
</g>
<path d="M144.64 91.62C144.77 93.74 144.98 95.86 144.98 97.98C144.98 98.37 144.16 99.08 143.7 99.11C141.55 99.21 139.38 99.15 137.22 99.07C136.88 99.06 136.54 98.67 136.21 98.46V91.63H144.64V91.62ZM137.63 98.01H143.82V92.88H137.63V98.01Z" fill="black"/>
<path d="M260.95 98.46C260.38 98.69 259.82 99.07 259.24 99.11C257.61 99.22 255.97 99.15 254.33 99.22C252.68 99.29 251.9 98.52 252 96.98C252.11 95.19 252.34 93.41 252.52 91.63H260.95V98.46ZM253.29 92.89V98.01H259.48V92.89H253.29Z" fill="black"/>
<path d="M136.21 161C136.5 160.05 137.13 159.67 138.17 159.72C139.81 159.79 141.45 159.74 143.09 159.76C144.47 159.78 145.32 160.29 145.17 161.82C145.09 162.67 145.17 163.53 145.17 164.38C145.17 166.207 144.21 167.147 142.29 167.2C141.24 167.23 140.18 167.14 139.13 167.23C137.46 167.37 136.43 166.78 136.21 165.1V161ZM143.85 166.04V160.93H137.65V166.04H143.85Z" fill="black"/>
<path d="M260.95 166.46C260.44 166.68 259.94 167.07 259.42 167.1C257.62 167.2 255.81 167.18 254.01 167.2C252.73 167.21 252.05 166.58 252.02 165.35C251.99 163.94 252 162.52 252 161.1C252 160.1 252.53 159.69 253.54 159.72C254.82 159.76 256.1 159.72 257.38 159.72C259.42 159.72 260.607 160.71 260.94 162.69V166.45L260.95 166.46ZM253.29 160.88V166.01H259.49V160.88H253.29Z" fill="black"/>
<path d="M136.21 227.98C136.72 227.76 137.22 227.37 137.74 227.34C139.54 227.24 141.35 227.26 143.15 227.24C144.43 227.23 145.11 227.86 145.13 229.09C145.16 230.5 145.15 231.92 145.14 233.34C145.14 234.34 144.59 234.74 143.59 234.71C142.31 234.68 141.03 234.71 139.75 234.71C137.683 234.71 136.5 233.72 136.2 231.74V227.98H136.21ZM143.89 228.43H137.67V233.56H143.89V228.43Z" fill="black"/>
<path d="M260.95 231.74C260.623 233.713 259.437 234.703 257.39 234.71C256.11 234.71 254.83 234.68 253.55 234.71C252.55 234.73 252 234.34 252 233.33C252 231.86 251.9 230.37 252.09 228.92C252.16 228.34 252.86 227.39 253.31 227.36C255.57 227.23 257.84 227.33 260.1 227.4C260.39 227.4 260.66 227.77 260.94 227.97V231.73L260.95 231.74ZM253.28 233.57H259.5V228.45H253.28V233.57Z" fill="black"/>
<path d="M149.01 94.71H248.51C246.97 95.71 151.4 95.91 149 95.16C149 95.01 149 94.86 149 94.71H149.01Z" fill="black"/>
<path d="M248.14 231.73H148.62C150.2 230.71 245.88 230.53 248.14 231.29C248.14 231.44 248.14 231.58 248.14 231.73Z" fill="black"/>
<path d="M257.06 102.87V156.8C256.89 156.83 256.73 156.86 256.56 156.89C256.41 156.38 256.14 155.87 256.14 155.35C256.17 138.28 256.22 121.2 256.27 104.13C256.27 103.7 256.39 103.27 256.45 102.84C256.65 102.84 256.86 102.85 257.06 102.86V102.87Z" fill="black"/>
<path d="M140.76 169.64V224C139.58 222.21 139.48 170.96 140.76 169.64Z" fill="black"/>
<path d="M140.09 156.79V102.39C141.28 104.33 141.35 155.53 140.09 156.79Z" fill="black"/>
<path d="M257.01 223.6C255.85 221.37 255.94 170.72 256.92 169.31C257.1 170.1 257.34 170.64 257.34 171.17C257.31 188.19 257.26 205.2 257.2 222.22C257.2 222.68 257.08 223.14 257.01 223.6Z" fill="black"/>
<path d="M137.63 98.01V92.88H143.82V98.01H137.63Z" fill="#F2F2F2"/>
<path d="M253.3 92.88H259.49V98H253.3V92.88Z" fill="#F2F2F2"/>
<path d="M143.85 166.04H137.65V160.93H143.85V166.04Z" fill="#F2F2F2"/>
<path d="M253.29 160.89H259.49V166.02H253.29V160.89Z" fill="#F2F2F2"/>
<path d="M143.89 228.43V233.56H137.67V228.43H143.89Z" fill="#F2F2F2"/>
<path d="M253.28 233.56V228.44H259.5V233.56H253.28Z" fill="#F2F2F2"/>
<path d="M222.34 107.59C222.15 107.87 222.07 108.1 221.92 108.17C217.84 110 216.73 113.76 215.73 117.61C215.72 117.65 215.73 117.71 215.7 117.74C215.56 117.91 215.4 118.07 215.25 118.23C215.1 118.06 214.89 117.92 214.82 117.72C214.24 116.06 213.76 114.37 213.11 112.74C212.31 110.76 210.91 109.28 208.95 108.36C208.7 108.24 208.36 107.92 208.38 107.73C208.41 107.47 208.7 107.14 208.96 107.02C211.48 105.88 212.8 103.75 213.71 101.3C214.14 100.13 214.43 98.91 214.81 97.72C214.88 97.51 215.11 97.35 215.26 97.16C215.41 97.35 215.63 97.51 215.7 97.73C216.26 99.32 216.71 100.95 217.33 102.52C218.15 104.58 219.58 106.11 221.62 107.05C221.86 107.16 222.05 107.38 222.32 107.59H222.34ZM209 107.59C209.04 107.72 209.05 107.75 209.06 107.76C209.26 107.88 209.45 108.01 209.65 108.12C211.32 108.95 212.48 110.28 213.26 111.93C213.66 112.76 214 113.63 214.31 114.5C214.65 115.47 214.93 116.46 215.26 117.53C216.45 113.59 217.31 109.56 221.71 107.69C217.28 105.82 216.47 101.77 215.25 97.88C214.91 98.97 214.63 99.95 214.31 100.91C213.36 103.78 212.03 106.36 208.99 107.59H209Z" fill="black"/>
<path d="M221.73 107.68C217.96 109.29 216.79 112.47 215.79 115.82C215.62 116.38 215.45 116.96 215.28 117.52C214.94 116.45 214.67 115.46 214.32 114.49C214.01 113.62 213.67 112.76 213.27 111.92C212.48 110.26 211.33 108.93 209.66 108.11C209.45 108.01 209.26 107.87 209.06 107.76C209.04 107.75 209.04 107.71 209 107.59C212.04 106.36 213.37 103.79 214.32 100.91C214.64 99.95 214.92 98.97 215.26 97.88C215.58 98.9 215.87 99.93 216.21 100.93C217.15 103.75 218.45 106.31 221.72 107.69L221.73 107.68Z" fill="#FFD384"/>
<g style="mix-blend-mode:multiply" opacity="0.5">
<path d="M215.34 112.4C215.66 113.52 215.7 114.68 215.79 115.82C215.62 116.38 215.45 116.96 215.28 117.52C214.94 116.45 214.67 115.46 214.32 114.49C214.01 113.62 213.67 112.76 213.27 111.92C212.48 110.26 211.33 108.93 209.66 108.11C209.45 108.01 209.26 107.87 209.06 107.76C209.04 107.75 209.04 107.71 209 107.59C212.04 106.36 213.37 103.79 214.32 100.91C214.64 99.95 214.92 98.97 215.26 97.88C215.58 98.9 215.87 99.93 216.21 100.93C216.06 102.76 215.49 104.56 214.57 106.18C213.74 107.65 213.41 108.3 214.14 109.98C214.52 110.84 215.07 111.48 215.33 112.41L215.34 112.4Z" fill="#FFD384"/>
</g>
<path d="M302.65 130.58C302.46 130.86 302.38 131.09 302.23 131.16C298.15 132.99 297.04 136.75 296.04 140.6C296.03 140.64 296.04 140.7 296.01 140.73C295.87 140.9 295.71 141.06 295.56 141.22C295.41 141.05 295.2 140.91 295.13 140.71C294.55 139.05 294.07 137.36 293.42 135.73C292.62 133.75 291.22 132.27 289.26 131.35C289.01 131.23 288.67 130.91 288.69 130.72C288.72 130.46 289.01 130.13 289.27 130.01C291.79 128.87 293.11 126.74 294.02 124.29C294.45 123.12 294.74 121.9 295.12 120.71C295.19 120.5 295.42 120.34 295.57 120.15C295.72 120.34 295.94 120.5 296.01 120.72C296.57 122.31 297.02 123.94 297.64 125.51C298.46 127.57 299.89 129.1 301.93 130.04C302.17 130.15 302.36 130.37 302.63 130.58H302.65ZM289.31 130.58C289.35 130.71 289.36 130.74 289.37 130.75C289.57 130.87 289.76 131 289.96 131.11C291.63 131.94 292.79 133.27 293.57 134.92C293.97 135.75 294.31 136.62 294.62 137.49C294.96 138.46 295.24 139.45 295.57 140.52C296.76 136.58 297.62 132.55 302.02 130.68C297.59 128.81 296.78 124.76 295.56 120.87C295.22 121.96 294.94 122.94 294.62 123.9C293.67 126.77 292.34 129.35 289.3 130.58H289.31Z" fill="black"/>
<path d="M302.04 130.66C298.27 132.27 297.1 135.45 296.1 138.8C295.93 139.36 295.76 139.94 295.59 140.5C295.25 139.43 294.98 138.44 294.63 137.47C294.32 136.6 293.98 135.74 293.58 134.9C292.79 133.24 291.64 131.92 289.97 131.09C289.76 130.99 289.57 130.85 289.37 130.74C289.35 130.73 289.35 130.69 289.31 130.57C292.35 129.34 293.68 126.77 294.63 123.89C294.95 122.93 295.23 121.95 295.57 120.86C295.89 121.88 296.18 122.91 296.52 123.91C297.46 126.73 298.76 129.29 302.03 130.67L302.04 130.66Z" fill="#FFD384"/>
<g style="mix-blend-mode:multiply" opacity="0.5">
<path d="M295.65 135.38C295.97 136.5 296.01 137.66 296.1 138.8C295.93 139.36 295.76 139.94 295.59 140.5C295.25 139.43 294.98 138.44 294.63 137.47C294.32 136.6 293.98 135.74 293.58 134.9C292.79 133.24 291.64 131.92 289.97 131.09C289.76 130.99 289.57 130.85 289.37 130.74C289.35 130.73 289.35 130.69 289.31 130.57C292.35 129.34 293.68 126.77 294.63 123.89C294.95 122.93 295.23 121.95 295.57 120.86C295.89 121.88 296.18 122.91 296.52 123.91C296.37 125.74 295.8 127.54 294.88 129.16C294.05 130.63 293.72 131.28 294.45 132.96C294.83 133.82 295.38 134.46 295.64 135.39L295.65 135.38Z" fill="#FFD384"/>
</g>
<path d="M282.36 97C282.05 97.45 281.93 97.83 281.69 97.93C275.11 100.87 273.33 106.94 271.72 113.14C271.7 113.21 271.71 113.31 271.67 113.35C271.44 113.62 271.19 113.88 270.95 114.14C270.72 113.87 270.37 113.64 270.26 113.32C269.33 110.65 268.56 107.91 267.5 105.29C266.21 102.1 263.96 99.71 260.8 98.23C260.4 98.04 259.84 97.52 259.88 97.21C259.92 96.79 260.4 96.26 260.82 96.07C264.88 94.23 267.01 90.8 268.48 86.85C269.18 84.97 269.63 82.99 270.25 81.08C270.36 80.74 270.73 80.48 270.98 80.19C271.22 80.49 271.57 80.76 271.7 81.11C272.59 83.68 273.33 86.3 274.33 88.82C275.65 92.14 277.95 94.61 281.24 96.12C281.62 96.3 281.93 96.65 282.36 96.99V97ZM260.87 96.98C260.94 97.19 260.94 97.24 260.97 97.25C261.29 97.44 261.6 97.66 261.93 97.82C264.62 99.16 266.48 101.3 267.75 103.96C268.39 105.3 268.95 106.7 269.44 108.1C269.99 109.66 270.44 111.26 270.97 112.99C272.9 106.65 274.27 100.15 281.37 97.13C274.24 94.12 272.92 87.59 270.96 81.32C270.42 83.08 269.96 84.65 269.45 86.21C267.92 90.84 265.77 94.99 260.87 96.97V96.98Z" fill="black"/>
<path d="M281.37 97.14C275.62 99.59 273.62 104.31 272.05 109.38C271.68 110.58 271.33 111.79 270.97 112.99C270.44 111.26 269.99 109.67 269.44 108.1C268.95 106.7 268.38 105.31 267.75 103.96C266.48 101.3 264.62 99.15 261.92 97.81C261.58 97.65 261.28 97.44 260.96 97.24C260.94 97.24 260.94 97.17 260.87 96.97C265.76 94.99 267.92 90.83 269.44 86.2C269.95 84.65 270.41 83.08 270.95 81.32C271.16 81.99 271.36 82.66 271.57 83.33C273.27 88.94 275 94.44 281.38 97.13L281.37 97.14Z" fill="#FFD384"/>
<g style="mix-blend-mode:multiply" opacity="0.5">
<path d="M272.05 109.38C271.68 110.58 271.33 111.79 270.97 112.99C270.44 111.26 269.99 109.67 269.44 108.1C268.95 106.7 268.38 105.31 267.75 103.96C266.48 101.3 264.62 99.15 261.92 97.81C261.58 97.65 261.28 97.44 260.96 97.24C260.94 97.24 260.94 97.17 260.87 96.97C265.76 94.99 267.92 90.83 269.44 86.2C269.95 84.65 270.41 83.08 270.95 81.32C271.16 81.99 271.36 82.66 271.57 83.33C271.57 84.75 271.37 86.19 271.05 87.7C270.41 90.62 268.17 93.29 267.61 96.05C266.97 99.18 270.56 103.58 271.45 106.73C271.7 107.61 271.9 108.49 272.06 109.37L272.05 109.38Z" fill="#FFD384"/>
</g>
<path d="M267.09 202.11C266.82 202.49 266.72 202.81 266.52 202.9C260.92 205.4 259.4 210.57 258.04 215.84C258.02 215.9 258.04 215.98 257.99 216.02C257.79 216.25 257.58 216.47 257.38 216.69C257.18 216.46 256.89 216.26 256.8 215.99C256.01 213.72 255.35 211.39 254.45 209.16C253.36 206.44 251.44 204.42 248.75 203.15C248.41 202.99 247.94 202.55 247.96 202.28C248 201.93 248.4 201.48 248.76 201.31C252.21 199.75 254.03 196.83 255.27 193.47C255.87 191.87 256.25 190.19 256.78 188.56C256.87 188.27 257.19 188.05 257.4 187.8C257.61 188.06 257.91 188.29 258.01 188.58C258.77 190.76 259.4 193 260.25 195.14C261.37 197.96 263.33 200.07 266.13 201.35C266.46 201.5 266.72 201.8 267.09 202.09V202.11ZM248.81 202.1C248.87 202.28 248.87 202.32 248.89 202.33C249.16 202.5 249.42 202.68 249.7 202.82C251.99 203.96 253.57 205.78 254.65 208.05C255.19 209.19 255.67 210.38 256.09 211.57C256.56 212.9 256.94 214.26 257.4 215.73C259.04 210.33 260.2 204.81 266.24 202.24C260.17 199.68 259.05 194.12 257.38 188.79C256.92 190.29 256.53 191.62 256.09 192.95C254.79 196.89 252.96 200.42 248.79 202.1H248.81Z" fill="black"/>
<path d="M266.25 202.24C260.95 204.5 259.4 209.03 258 213.75C257.8 214.41 257.61 215.07 257.41 215.73C256.95 214.25 256.58 212.89 256.11 211.57C255.68 210.38 255.21 209.19 254.66 208.05C253.58 205.78 252 203.96 249.71 202.82C249.42 202.68 249.16 202.5 248.89 202.34C248.87 202.32 248.87 202.28 248.81 202.1C252.97 200.42 254.8 196.89 256.1 192.95C256.54 191.63 256.93 190.29 257.39 188.79C257.6 189.47 257.8 190.15 258.02 190.83C259.43 195.49 260.96 200 266.25 202.24Z" fill="#FFD384"/>
<g style="mix-blend-mode:multiply" opacity="0.5">
<path d="M257.21 208.77C257.57 210.4 257.8 212.08 257.99 213.75C257.79 214.41 257.6 215.07 257.4 215.73C256.94 214.25 256.57 212.89 256.1 211.57C255.67 210.38 255.2 209.19 254.65 208.05C253.57 205.78 251.99 203.96 249.7 202.82C249.41 202.68 249.15 202.5 248.88 202.34C248.86 202.32 248.86 202.28 248.8 202.1C252.96 200.42 254.79 196.89 256.09 192.95C256.53 191.63 256.92 190.29 257.38 188.79C257.59 189.47 257.79 190.15 258.01 190.83C257.98 194.52 256.48 197.89 255.27 201.64C254.42 204.27 256.63 206.12 257.21 208.77Z" fill="#FFD384"/>
</g>
<path d="M255.98 137.94C254.83 140.94 253.78 143.98 252.51 146.93C251.53 149.21 251.08 151.53 251.09 153.99C251.09 156.99 251.09 159.98 250.99 162.98C250.87 166.93 249.58 170.55 247.19 173.63C244.78 176.75 243.31 180.15 242.66 184.01C242.13 187.09 240.61 189.65 238.17 191.69C237.29 192.43 236.62 193.45 235.94 194.4C235.18 195.46 234.56 196.62 233.78 197.67C230.42 202.19 225.95 204.36 220.28 203.85C219.11 203.74 217.93 203.61 216.78 203.38C213.53 202.74 211.19 200.9 209.71 197.92C208.61 195.71 208.18 193.35 207.93 190.93C207.14 183.33 208.78 176.18 212.24 169.48C213.8 166.45 214.73 163.43 214.71 160C214.69 157.17 214.82 154.28 216.06 151.66C216.76 150.18 217.73 148.81 218.69 147.47C219.43 146.44 220.3 145.49 221.19 144.57C222.56 143.14 223.08 141.47 222.94 139.5C222.8 137.47 222.72 135.43 222.73 133.39C222.75 129.58 224.25 126.39 227.08 123.85C228.19 122.85 229.32 121.86 230.49 120.93C231.41 120.2 232.01 119.33 232.19 118.16C233.3 110.8 237.66 105.91 244.1 102.69C246.03 101.72 248.09 100.99 250.1 100.18C250.54 100 251.02 99.89 251.49 99.84C252.49 99.73 253.06 100.21 253.17 101.19C253.21 101.54 253.25 101.89 253.22 102.24C252.93 105.35 253.57 108.32 254.41 111.29C255.05 113.53 255.54 115.8 256.08 118.07C257.66 124.69 257.51 131.29 255.73 137.85C255.82 137.88 255.91 137.91 256 137.94H255.98ZM251.8 100.45C251.29 100.57 250.76 100.64 250.28 100.83C248.62 101.47 246.94 102.09 245.32 102.84C238.56 105.95 233.96 110.83 232.79 118.45C232.59 119.72 231.92 120.65 230.93 121.45C229.55 122.58 228.21 123.76 226.92 124.99C224.66 127.14 223.51 129.83 223.45 132.93C223.4 135.28 223.52 137.64 223.61 140C223.68 141.78 223.19 143.31 222 144.66C220.79 146.02 219.61 147.4 218.48 148.82C216.97 150.7 216.03 152.85 215.78 155.26C215.56 157.45 215.29 159.64 215.28 161.83C215.28 164.17 214.67 166.28 213.55 168.3C211.09 172.72 209.41 177.44 208.77 182.45C208.15 187.27 208.1 192.09 210.01 196.75C211.46 200.27 213.99 202.27 217.7 202.81C218.01 202.85 218.58 202.59 218.67 202.34C219.1 201.12 219.62 199.88 219.73 198.61C220.12 194.28 221.49 190.36 223.99 186.79C225.06 185.26 225.97 183.58 226.73 181.88C228.42 178.11 228.79 174.06 228.77 169.99C228.74 163.41 229.92 157.13 232.73 151.16C234.42 147.58 236.72 144.41 239.06 141.27C242.77 136.32 244.57 130.76 244.67 124.61C244.72 121.58 244.71 118.55 245.62 115.61C246.45 112.93 247.23 110.23 248.12 107.58C248.97 105.08 249.92 102.6 251.81 100.46L251.8 100.45ZM252.48 101.34C252.37 101.28 252.25 101.22 252.14 101.16C251.56 102.01 250.83 102.79 250.44 103.71C249.45 106.06 248.58 108.45 247.74 110.85C246.17 115.3 245.25 119.84 245.3 124.61C245.36 130.25 243.84 135.52 240.58 140.2C239.65 141.53 238.73 142.87 237.76 144.18C232.34 151.51 229.45 159.67 229.5 168.85C229.51 171.11 229.32 173.37 229.08 175.62C228.61 179.93 227 183.81 224.49 187.33C222.34 190.35 220.98 193.67 220.61 197.38C220.42 199.27 220.33 201.19 219.17 202.98C222.14 203.29 224.87 203.22 227.52 201.97C230.98 200.34 233.17 197.52 235.1 194.37C235.79 193.24 236.56 192.08 237.56 191.24C240 189.19 241.41 186.62 242.07 183.56C242.38 182.13 242.49 180.6 243.08 179.29C243.91 177.42 244.98 175.62 246.16 173.94C248.64 170.4 250.23 166.59 250.32 162.23C250.38 159.59 250.39 156.94 250.37 154.3C250.35 151.65 250.7 149.08 251.86 146.68C253.65 142.98 254.81 139.08 255.62 135.07C256.45 130.98 256.86 126.84 256.12 122.72C255.43 118.8 254.55 114.91 253.58 111.05C252.85 108.15 252.23 105.28 252.5 102.28C252.53 101.97 252.48 101.65 252.47 101.34H252.48Z" fill="black"/>
<path d="M251.8 100.45C249.92 102.59 248.96 105.06 248.12 107.56C247.22 110.22 246.45 112.92 245.62 115.6C244.7 118.53 244.72 121.57 244.67 124.6C244.57 130.75 242.76 136.31 239.06 141.25C236.72 144.39 234.42 147.56 232.73 151.14C229.92 157.11 228.74 163.4 228.77 169.97C228.79 174.04 228.41 178.09 226.72 181.86C226.03 183.41 225.23 184.92 224.27 186.33C224.18 186.47 224.09 186.63 223.98 186.77C221.56 190.23 220.2 194.02 219.76 198.2C219.74 198.33 219.74 198.46 219.72 198.59C219.6 199.86 219.09 201.1 218.65 202.31C218.56 202.57 217.99 202.83 217.69 202.78C213.98 202.24 211.45 200.24 210 196.72C208.09 192.06 208.13 187.25 208.76 182.43C209.41 177.42 211.09 172.7 213.54 168.28C214.66 166.25 215.26 164.15 215.27 161.8C215.27 159.61 215.55 157.41 215.76 155.23C216.01 152.82 216.95 150.67 218.46 148.79C219.6 147.38 220.78 145.99 221.98 144.64C223.18 143.3 223.66 141.76 223.59 139.98C223.49 137.63 223.38 135.27 223.43 132.91C223.49 129.82 224.65 127.12 226.91 124.97C228.2 123.74 229.54 122.56 230.92 121.44C231.91 120.63 232.59 119.71 232.79 118.43C233.95 110.82 238.56 105.94 245.32 102.82C245.45 102.76 245.58 102.7 245.71 102.65C247.21 101.97 248.75 101.41 250.28 100.81C250.69 100.65 251.15 100.58 251.59 100.48C251.66 100.46 251.73 100.45 251.81 100.43L251.8 100.45Z" fill="#9785AD"/>
<path d="M255.62 135.08C254.8 139.1 253.64 143 251.85 146.7C250.69 149.11 250.33 151.68 250.36 154.32C250.38 156.96 250.36 159.61 250.31 162.26C250.22 166.61 248.64 170.43 246.16 173.97C244.98 175.65 243.91 177.45 243.07 179.32C242.49 180.63 242.38 182.16 242.07 183.59C241.42 186.65 240 189.22 237.56 191.27C236.56 192.12 235.79 193.28 235.1 194.4C233.17 197.55 230.98 200.37 227.52 202C225.57 202.92 223.57 203.2 221.47 203.16C220.72 203.16 219.96 203.09 219.18 203.01C220.34 201.22 220.43 199.3 220.62 197.41C220.7 196.57 220.84 195.76 221.02 194.96C221.44 193.09 222.13 191.32 223.06 189.64C223.48 188.86 223.96 188.09 224.5 187.35C227.01 183.83 228.62 179.95 229.09 175.64C229.33 173.39 229.52 171.13 229.5 168.87C229.45 159.69 232.34 151.53 237.76 144.2C238.72 142.89 239.64 141.55 240.58 140.22C243.83 135.53 245.36 130.28 245.29 124.63C245.24 119.85 246.17 115.32 247.73 110.87C248.58 108.47 249.44 106.07 250.43 103.72C250.82 102.79 251.55 102.01 252.13 101.17C252.24 101.23 252.35 101.29 252.47 101.35C252.47 101.66 252.53 101.98 252.49 102.29C252.49 102.35 252.49 102.41 252.47 102.47C252.24 105.41 252.85 108.22 253.56 111.06C254.53 114.92 255.41 118.81 256.1 122.73C256.83 126.86 256.43 130.99 255.6 135.08H255.62Z" fill="#CAB1E6"/>
<g style="mix-blend-mode:multiply" opacity="0.35">
<path d="M239.76 136.86C237.69 140.87 234.7 144.32 232.66 148.36C228.31 156.93 229.52 166.85 227.4 176C226.58 179.51 225.49 182.94 224.27 186.34C225.23 184.94 226.03 183.42 226.72 181.87C228.41 178.1 228.79 174.05 228.77 169.98C228.74 163.41 229.92 157.12 232.73 151.15C234.42 147.57 236.72 144.4 239.06 141.26C242.77 136.32 244.57 130.76 244.67 124.61C244.72 121.58 244.7 118.54 245.62 115.61C246.45 112.93 247.22 110.23 248.12 107.57C248.97 105.07 249.92 102.59 251.8 100.46C251.73 100.48 251.66 100.49 251.58 100.51C246.87 106.16 245.59 114.67 244.25 121.54C243.24 126.78 242.22 132.07 239.75 136.87L239.76 136.86Z" fill="#9785AD"/>
</g>
<g style="mix-blend-mode:multiply" opacity="0.35">
<path d="M219.76 198.2C219.76 198.2 219.74 198.26 219.73 198.29C219.18 199.72 218.7 201.26 218.06 202.69C211.56 194.87 210.08 183.9 215.21 174.71C217.41 170.76 221.22 167.56 221.1 162.7C221.04 160.31 219.9 158.07 219.8 155.71C219.66 152.78 221.76 151.21 223.8 149.51C226.88 146.93 228.88 144.44 229.01 140.27C229.11 137.2 228.31 134.35 229.76 131.43C230.88 129.17 232.79 127.4 234.21 125.33C238.64 118.89 239.78 108.03 245.73 102.67C245.6 102.72 245.47 102.78 245.34 102.84C238.58 105.96 233.98 110.84 232.81 118.45C232.61 119.73 231.93 120.65 230.94 121.46C229.56 122.58 228.22 123.76 226.93 124.99C224.67 127.14 223.52 129.83 223.45 132.93C223.4 135.28 223.51 137.64 223.61 140C223.68 141.78 223.2 143.32 222 144.66C220.8 146.02 219.62 147.4 218.48 148.81C216.97 150.69 216.03 152.85 215.78 155.25C215.56 157.44 215.29 159.63 215.29 161.82C215.29 164.16 214.68 166.27 213.56 168.3C211.1 172.72 209.42 177.44 208.78 182.45C208.16 187.27 208.11 192.08 210.02 196.74C211.46 200.26 214 202.26 217.71 202.8C218.01 202.85 218.59 202.58 218.67 202.33C219.11 201.12 219.62 199.87 219.74 198.61C219.76 198.48 219.76 198.35 219.78 198.22L219.76 198.2Z" fill="#9785AD"/>
</g>
<g style="mix-blend-mode:multiply" opacity="0.35">
<path d="M252.48 101.34C252.36 101.28 252.25 101.22 252.14 101.16C251.56 102.01 250.83 102.79 250.44 103.71C249.45 106.05 248.58 108.46 247.74 110.86C246.18 115.31 245.25 119.85 245.3 124.62C245.36 130.27 243.84 135.52 240.59 140.21C239.66 141.54 238.74 142.88 237.77 144.19C232.35 151.53 229.46 159.69 229.51 168.86C229.53 171.12 229.33 173.38 229.1 175.63C228.63 179.94 227.02 183.82 224.51 187.34C223.98 188.08 223.5 188.85 223.07 189.63C222.89 190.12 222.7 190.6 222.52 191.07C222.03 192.36 221.53 193.65 221.03 194.95C220.85 195.75 220.71 196.56 220.63 197.4C220.44 199.29 220.35 201.21 219.19 203C219.97 203.08 220.73 203.14 221.48 203.15C223.61 198.09 225.52 192.89 227.38 187.72C229.25 182.51 230.86 177.21 231.66 171.72C232.42 166.49 232.35 161.14 233.53 155.96C234.71 150.81 237.61 146.8 240.36 142.41C242.96 138.25 244.67 133.84 245.74 129.04C246.81 124.18 247.24 119.21 248.2 114.33C249.06 109.97 250.53 106.21 252.51 102.46C252.51 102.4 252.51 102.34 252.53 102.28C252.56 101.97 252.51 101.65 252.51 101.34H252.48Z" fill="#9785AD"/>
</g>
<path d="M284.41 144.71C281.83 144.57 279.24 144.56 276.68 144.27C267.65 143.25 260.38 146.48 254.52 153.22C253.91 153.92 253.27 154.48 252.3 154.55C252.12 154.55 251.92 154.61 251.75 154.69C248.16 156.48 244.42 157.98 241.37 160.72C239.11 162.74 237.76 165.34 236.64 168.04C235.88 169.86 234.79 171.29 233.23 172.42C231.71 173.52 230.12 174.55 228.66 175.74C225.73 178.12 223.6 180.8 222.26 183.77C220.52 187.57 220.09 191.86 220.98 196.63C221.08 197.12 221.18 197.62 221.33 198.34C222.06 197.26 222.69 196.34 223.29 195.41C230.32 184.62 239.12 175.46 249.16 167.45C255.97 162.01 262.96 156.83 270.48 152.42C271.44 151.85 272.43 151.34 273.42 150.83C273.72 150.68 274.05 150.61 274.37 150.52C274.42 150.59 274.47 150.66 274.51 150.74C274.36 150.88 274.22 151.07 274.04 151.17C270.23 153.22 266.58 155.5 263.02 157.94C261.32 158.9 259.66 159.89 258.08 160.97C252.29 164.96 246.97 169.54 241.95 174.46C241.15 175.24 240.37 176.04 239.6 176.84C239.6 176.84 239.58 176.86 239.57 176.87C237.63 178.77 235.75 180.72 233.93 182.75C229.53 187.65 225.64 192.93 222.14 198.49C222.06 198.62 222.03 198.77 222.06 198.68C225.71 197.32 229.54 196.02 233.26 194.46C239.11 192 244.05 188.35 246.99 182.57C247.88 180.82 249.09 179.73 250.77 178.89C252.51 178.02 254.15 176.98 255.83 175.99C258.48 174.43 260.49 172.35 261.87 169.75C261.9 169.69 261.93 169.64 261.96 169.58C262.32 168.88 262.64 168.14 262.91 167.38C263.37 166.06 264.25 165.44 265.52 165.17C266.17 165.03 266.82 164.85 267.47 164.7C268.79 164.4 270 163.97 271.12 163.4C274.22 161.87 276.65 159.42 278.62 156.42C280.61 153.39 282.34 150.18 284.2 147.07C284.63 146.34 285.11 145.63 285.64 144.77C285.14 144.75 284.77 144.73 284.4 144.71H284.41Z" fill="white"/>
<path d="M218.69 203.52C219.04 202.7 219.26 201.8 219.76 201.08C220.69 199.73 220.6 198.37 220.29 196.88C218.72 189.43 220.62 182.88 225.8 177.39C227.51 175.58 229.68 174.2 231.7 172.71C233.63 171.29 235.25 169.75 236.16 167.4C237.21 164.7 238.66 162.16 240.89 160.18C244.02 157.41 247.77 155.68 251.56 154.09C252.89 153.53 253.9 152.85 254.84 151.84C260.24 146.04 266.8 142.97 274.84 143.43C278.31 143.63 281.78 143.81 285.25 144.03C285.63 144.05 286.17 144.21 286.3 144.47C286.43 144.73 286.19 145.24 286 145.57C284.32 148.43 282.58 151.25 280.94 154.12C279.21 157.14 277.11 159.83 274.46 162.09C272 164.19 268.99 165.05 265.94 165.76C264.72 166.04 263.92 166.56 263.45 167.81C262.26 170.97 260.45 173.75 257.55 175.61C255.19 177.12 252.75 178.51 250.31 179.89C249.25 180.49 248.41 181.18 247.87 182.32C246.77 184.63 245.34 186.75 243.45 188.52C240.15 191.59 236.48 194.09 232.19 195.58C229.6 196.48 226.99 197.33 224.45 198.34C222.32 199.18 220.65 200.61 219.69 202.76C219.54 203.09 219.32 203.39 219.14 203.71C219 203.64 218.85 203.58 218.71 203.51L218.69 203.52ZM284.41 144.72C281.83 144.58 279.24 144.57 276.68 144.28C267.65 143.26 260.38 146.49 254.51 153.23C253.9 153.93 253.26 154.49 252.29 154.56C252.1 154.57 251.9 154.62 251.74 154.7C248.15 156.49 244.41 158 241.36 160.73C239.1 162.75 237.75 165.35 236.63 168.06C235.88 169.88 234.78 171.31 233.23 172.44C231.71 173.54 230.12 174.57 228.67 175.76C221.99 181.2 219.41 188.17 220.98 196.66C221.07 197.16 221.18 197.65 221.32 198.36C222.04 197.28 222.68 196.36 223.29 195.42C230.32 184.63 239.12 175.47 249.16 167.46C255.97 162.03 262.96 156.84 270.48 152.43C271.44 151.87 272.43 151.35 273.42 150.84C273.71 150.69 274.05 150.63 274.37 150.52C274.42 150.59 274.46 150.66 274.51 150.74C274.35 150.88 274.22 151.07 274.04 151.17C267.37 154.76 261.17 159.07 255.13 163.62C247.49 169.37 240.34 175.64 233.94 182.76C229.53 187.66 225.65 192.94 222.14 198.5C222.06 198.63 222.02 198.78 222.06 198.69C225.71 197.33 229.54 196.04 233.25 194.48C239.09 192.02 244.04 188.37 246.98 182.59C247.87 180.84 249.08 179.75 250.76 178.91C252.5 178.05 254.14 176.99 255.82 176.01C259.23 174.01 261.58 171.1 262.9 167.4C263.37 166.08 264.24 165.46 265.51 165.19C266.16 165.05 266.81 164.87 267.46 164.72C272.4 163.6 275.93 160.53 278.62 156.44C280.61 153.41 282.34 150.21 284.2 147.08C284.64 146.35 285.11 145.64 285.64 144.79C285.14 144.76 284.77 144.75 284.4 144.73L284.41 144.72Z" fill="black"/>
<path d="M285.65 144.77C285.12 145.62 284.64 146.33 284.21 147.07C282.35 150.19 280.62 153.39 278.63 156.42C276.66 159.42 274.23 161.87 271.13 163.4C270.01 163.97 268.79 164.4 267.48 164.7C266.83 164.85 266.18 165.03 265.53 165.17C264.26 165.44 263.38 166.06 262.92 167.38C262.65 168.15 262.33 168.88 261.97 169.58C261.95 169.64 261.91 169.69 261.88 169.75C260.5 172.34 258.49 174.43 255.84 175.99C254.17 176.98 252.52 178.02 250.78 178.89C249.1 179.73 247.89 180.81 247 182.57C244.06 188.35 239.11 192 233.27 194.46C229.55 196.02 225.73 197.32 222.07 198.68C222.04 198.77 222.07 198.62 222.15 198.49C225.66 192.92 229.54 187.65 233.94 182.75C235.76 180.72 237.64 178.77 239.58 176.87C239.58 176.87 239.6 176.85 239.61 176.84C244.47 172.09 249.68 167.72 255.14 163.61C257.73 161.66 260.36 159.75 263.03 157.93C266.59 155.49 270.24 153.21 274.05 151.16C274.23 151.06 274.37 150.87 274.52 150.73C274.48 150.66 274.43 150.59 274.38 150.51C274.06 150.61 273.73 150.67 273.43 150.82C272.44 151.33 271.44 151.84 270.49 152.41C262.96 156.82 255.98 162 249.17 167.44C239.13 175.45 230.33 184.61 223.3 195.4C222.69 196.33 222.06 197.26 221.34 198.33C221.19 197.61 221.08 197.12 220.99 196.62C220.1 191.85 220.54 187.56 222.27 183.76C223.61 180.79 225.75 178.11 228.67 175.73C230.13 174.54 231.72 173.51 233.24 172.41C234.8 171.28 235.89 169.85 236.65 168.03C237.77 165.33 239.12 162.73 241.38 160.71C244.43 157.97 248.17 156.47 251.76 154.68C251.93 154.59 252.13 154.54 252.31 154.54C253.28 154.47 253.92 153.91 254.53 153.21C260.39 146.47 267.66 143.24 276.69 144.26C279.25 144.55 281.84 144.56 284.42 144.7C284.79 144.72 285.16 144.74 285.66 144.76L285.65 144.77Z" fill="#CAB1E6"/>
<g style="mix-blend-mode:multiply" opacity="0.35">
<path d="M257.36 171.05C255.29 173.89 251.88 174.09 248.83 175.23C244.25 176.94 242.11 180.58 239.43 184.39C236.71 188.27 232.57 190.4 228.58 190.16C231.89 185.46 235.57 181.01 239.56 176.87C237.62 178.77 235.74 180.72 233.92 182.75C229.52 187.65 225.63 192.93 222.13 198.49C222.05 198.62 222.02 198.77 222.05 198.68C225.7 197.32 229.53 196.02 233.25 194.46C239.1 192 244.04 188.35 246.98 182.57C247.87 180.82 249.08 179.73 250.76 178.89C252.5 178.02 254.14 176.98 255.82 175.99C258.47 174.43 260.48 172.35 261.86 169.75C261.84 169.75 261.84 169.77 261.82 169.78C261.86 169.72 261.91 169.64 261.95 169.58C262.31 168.88 262.63 168.14 262.9 167.38C263.36 166.06 264.24 165.44 265.51 165.17C266.16 165.03 266.81 164.85 267.46 164.7C268.78 164.4 269.99 163.97 271.11 163.4C267.51 163.72 263.34 163.38 260.95 165.63C259.35 167.15 258.63 169.3 257.35 171.04L257.36 171.05Z" fill="#9785AD"/>
</g>
<g style="mix-blend-mode:multiply" opacity="0.35">
<path d="M275 149.81C268.32 150.78 261.76 155.39 256.27 159.06C250.42 162.97 244.81 167.35 239.79 172.29C234.9 177.1 230.44 182.34 226.44 187.92C226.09 188.42 225.74 188.92 225.39 189.44C224.86 189.22 224.35 188.95 223.86 188.63C223.72 188.44 223.57 188.23 223.45 188.01C222.61 186.61 222.3 185.19 222.27 183.78C220.53 187.58 220.1 191.87 220.99 196.64C221.09 197.13 221.19 197.63 221.34 198.35C222.07 197.27 222.7 196.35 223.3 195.42C230.33 184.63 239.13 175.47 249.17 167.46C255.98 162.02 262.97 156.84 270.49 152.43C271.45 151.86 272.44 151.35 273.43 150.84C273.73 150.69 274.06 150.62 274.38 150.53C274.43 150.6 274.48 150.67 274.52 150.75C274.37 150.89 274.23 151.08 274.05 151.18C270.24 153.23 266.59 155.51 263.03 157.95C267.25 155.57 271.66 153.36 275.3 150.32C275.55 150.1 275.27 149.79 275.02 149.83L275 149.81Z" fill="#9785AD"/>
</g>
<path d="M203.39 54.39C202.48 60.64 201.7 66.75 200.68 72.81C199.96 77.11 198.95 81.37 197.99 85.63C197.84 86.31 197.21 86.88 196.8 87.5C196.35 86.87 195.65 86.3 195.5 85.61C194.36 80.18 193.24 74.75 192.29 69.29C191.44 64.39 190.82 59.46 190.08 54.39C189.45 54.39 188.94 54.39 188.43 54.39C178.73 54.39 169.02 54.39 159.32 54.37C157.61 54.37 157.61 54.35 157.61 52.65C157.57 40.41 157.52 28.18 157.5 15.94C157.5 11.09 157.61 6.24 157.58 1.39C157.58 0.26 157.93 0 158.99 0C169.13 0.03 179.27 0 189.41 0C204.31 0 219.21 0 234.12 0C235.87 0 235.88 0 235.88 1.78C235.92 13.41 235.98 25.03 236 36.66C236 42.08 235.88 47.5 235.91 52.92C235.91 54.12 235.51 54.38 234.41 54.38C224.66 54.35 214.92 54.38 205.17 54.38C204.65 54.38 204.13 54.38 203.4 54.38L203.39 54.39ZM234.9 53.54V0.98H158.56V53.53H190.91C191.49 57.44 192 61.2 192.61 64.94C193.67 71.45 194.78 77.95 195.9 84.45C196.03 85.21 196.36 85.94 196.59 86.69C196.71 86.67 196.83 86.64 196.95 86.62C200.21 75.87 200.42 64.58 202.7 53.54H234.89H234.9Z" fill="black"/>
<path d="M190.9 53.53C191.48 57.43 191.99 61.2 192.6 64.94C193.65 71.45 194.76 77.95 195.88 84.45C196.02 85.21 196.34 85.94 196.58 86.69C196.7 86.67 196.82 86.64 196.94 86.61C200.2 75.87 200.4 64.58 202.7 53.53H234.89V0.980011H158.55V53.54H190.9V53.53ZM175.4 7.67001C174.98 7.75001 174.58 7.87001 174.18 7.87001C170.33 7.88001 166.49 7.89001 162.65 7.85001C162.3 7.85001 161.95 7.57001 161.61 7.41001C161.95 7.25001 162.29 6.96001 162.64 6.96001C166.52 6.93001 170.41 6.93001 174.3 6.95001C174.67 6.95001 175.05 7.11001 175.44 7.20001C175.43 7.36001 175.42 7.52001 175.41 7.67001H175.4ZM162.65 4.94001C162.3 4.94001 161.95 4.67001 161.61 4.51001C161.96 4.37001 162.32 4.11001 162.67 4.11001C168.62 4.08001 174.55 4.08001 180.5 4.09001C180.92 4.09001 181.33 4.25001 181.76 4.34001C181.75 4.47001 181.75 4.60001 181.75 4.73001C181.32 4.82001 180.9 4.96001 180.47 4.96001C174.54 4.97001 168.59 4.97001 162.66 4.94001H162.65ZM211.61 40.65C210.64 41.68 209.56 42.6 208.4 43.4C205.08 45.71 201.04 47.06 196.69 47.05H196.45C196.13 47.05 195.82 47.04 195.5 47.02C184.8 46.39 176.29 37.47 176.28 26.62C176.28 24.57 176.59 22.58 177.14 20.71C177.28 20.24 177.45 19.78 177.62 19.32C179.04 15.58 181.53 12.37 184.71 10.06C187.93 7.70001 191.88 6.27001 196.15 6.15001C196.36 6.14001 196.58 6.14001 196.78 6.14001C198.36 6.14001 199.92 6.33001 201.4 6.69001H201.42C204.45 7.40001 207.21 8.79001 209.55 10.68C214.21 14.44 217.18 20.18 217.18 26.59C217.18 32 215.09 36.91 211.66 40.57C211.64 40.6 211.62 40.64 211.59 40.66L211.61 40.65ZM232.51 50.56C232.12 50.68 231.73 50.91 231.34 50.91H226.97C222.89 50.91 218.81 50.9 214.72 50.89C214.34 50.88 213.94 50.74 213.56 50.65C213.57 50.48 213.58 50.31 213.59 50.14H232.42C232.45 50.28 232.47 50.42 232.51 50.57V50.56ZM226.99 47.83C221.48 48.04 213.71 47.81 213.09 47.16H232.41C232.06 47.51 229.83 47.73 226.99 47.83ZM232.01 44.06C231.68 44.36 229.46 44.55 226.99 44.62C223.94 44.7 220.5 44.57 219.75 44.17C220.27 43.77 223.83 43.58 226.97 43.62C229.37 43.64 231.56 43.78 232 44.06H232.01Z" fill="white"/>
<path d="M195.5 47.02C195.82 47.04 196.13 47.05 196.45 47.05H196.69C201.04 47.06 205.07 45.71 208.4 43.4C209.56 42.59 210.64 41.67 211.61 40.65C211.63 40.63 211.65 40.6 211.68 40.56C215.11 36.9 217.2 31.99 217.2 26.58C217.2 20.16 214.23 14.43 209.57 10.67C207.23 8.78 204.47 7.39 201.44 6.68H201.42C199.93 6.32 198.38 6.13 196.8 6.13C196.59 6.13 196.37 6.13 196.17 6.14C191.9 6.26 187.95 7.69001 184.73 10.05C181.55 12.36 179.06 15.57 177.64 19.31C177.47 19.77 177.3 20.23 177.16 20.7C176.6 22.57 176.3 24.56 176.3 26.61C176.31 37.46 184.82 46.38 195.52 47.01L195.5 47.02ZM178.07 21.51C178.18 21.15 178.32 20.8 178.47 20.47C181.19 21.43 183.93 22.39 186.77 23.4C185.62 27.83 186.73 31.56 190.14 34.73C189.8 34.98 189.46 35.24 189.13 35.5C189.11 35.51 189.1 35.52 189.09 35.53C187.06 37.07 185.05 38.58 183 40.13C182.86 40.01 182.73 39.89 182.6 39.76C178.18 35.63 176.13 27.16 178.08 21.51H178.07ZM187.35 26.52C187.43 21.33 191.77 17.1 196.89 17.21C202.07 17.33 206.26 21.67 206.13 26.82C206.01 31.92 201.67 36.1 196.6 35.99C191.46 35.88 187.27 31.6 187.35 26.53V26.52ZM214.77 19.41C218.28 28.19 214.91 38.23 206.82 43.18C203.71 45.08 200.36 45.94 197.14 46C191.91 46.1 186.98 44.08 183.85 40.95L183.65 40.75C185.92 39.05 188.16 37.31 190.48 35.7C190.81 35.47 191.62 35.72 192.11 35.95C198.14 38.85 205.2 35.59 206.84 29.13C208.33 23.26 204.46 17.34 198.49 16.34C198.11 16.27 197.74 16.18 197.33 16.09V7.4C202.75 6.89 211.39 10.93 214.76 19.4L214.77 19.41ZM188.34 9.19C188.34 9.19 188.35 9.17001 188.36 9.18001C190.91 7.94001 193.64 7.21 196.2 7.27V16.06C190.35 17.73 190.09 17.92 187.04 22.44C184.32 21.47 181.59 20.49 178.85 19.52C178.86 19.44 178.88 19.37 178.9 19.29C179.83 15.34 183.75 11.44 188.33 9.19H188.34Z" fill="black"/>
<path d="M181.75 4.74C181.32 4.82 180.9 4.97 180.47 4.97C174.53 4.97 168.59 4.97 162.65 4.94C162.3 4.94 161.96 4.66 161.61 4.51C161.97 4.37 162.32 4.11 162.68 4.11C168.62 4.08 174.56 4.08 180.5 4.09C180.92 4.09 181.34 4.25 181.76 4.34C181.76 4.47 181.76 4.61 181.76 4.74H181.75Z" fill="black"/>
<path d="M213.59 50.13H232.42C232.45 50.27 232.47 50.41 232.5 50.55C232.11 50.67 231.73 50.9 231.34 50.9C225.8 50.91 220.26 50.9 214.72 50.87C214.33 50.87 213.94 50.72 213.56 50.64C213.57 50.47 213.59 50.3 213.6 50.12L213.59 50.13Z" fill="black"/>
<path d="M232.42 47.16C231.4 48.16 214.03 48.14 213.09 47.16H232.42Z" fill="black"/>
<path d="M175.4 7.67999C174.99 7.74999 174.58 7.86999 174.18 7.86999C170.34 7.87999 166.49 7.88999 162.65 7.84999C162.3 7.84999 161.96 7.55999 161.61 7.39999C161.95 7.23999 162.29 6.94999 162.64 6.94999C166.53 6.91999 170.41 6.91999 174.3 6.93999C174.68 6.93999 175.06 7.10999 175.44 7.19999C175.43 7.35999 175.42 7.51999 175.41 7.66999L175.4 7.67999Z" fill="black"/>
<path d="M219.76 44.17C220.69 43.46 231 43.42 232.01 44.05C231.28 44.72 221.11 44.87 219.76 44.17Z" fill="black"/>
<path d="M183.66 40.75C185.93 39.05 188.17 37.31 190.49 35.7C190.82 35.47 191.63 35.72 192.12 35.95C198.15 38.85 205.21 35.59 206.85 29.13C208.34 23.26 204.47 17.34 198.5 16.34C198.12 16.27 197.75 16.18 197.34 16.09V7.40001C202.76 6.89001 211.4 10.93 214.77 19.4C218.28 28.18 214.91 38.22 206.82 43.17C203.71 45.07 200.36 45.93 197.14 45.99H197.13C191.9 46.09 186.98 44.06 183.85 40.94L183.65 40.74L183.66 40.75Z" fill="#CAB1E6"/>
<path d="M187.35 26.52C187.43 21.33 191.76 17.1 196.89 17.21C202.08 17.32 206.26 21.67 206.13 26.81C206 31.92 201.66 36.1 196.59 35.99C191.45 35.88 187.26 31.59 187.34 26.52H187.35Z" fill="#F2F2F2"/>
<path d="M178.86 19.51C178.87 19.43 178.89 19.36 178.91 19.28C179.84 15.33 183.76 11.43 188.34 9.17999C188.35 9.17999 188.36 9.16999 188.36 9.16999C190.91 7.92999 193.64 7.19999 196.2 7.25999V16.05C190.35 17.72 190.09 17.91 187.04 22.43C184.32 21.46 181.59 20.48 178.85 19.51H178.86Z" fill="#FFD384"/>
<path d="M178.07 21.51C178.18 21.15 178.32 20.8 178.47 20.47C181.19 21.43 183.93 22.39 186.77 23.4C185.62 27.83 186.73 31.56 190.14 34.73C189.8 34.98 189.46 35.24 189.13 35.5C189.11 35.51 189.1 35.52 189.09 35.53H189.08C187.05 37.07 185.05 38.59 183 40.13C182.86 40.01 182.73 39.89 182.6 39.76C178.18 35.63 176.13 27.16 178.08 21.51H178.07Z" fill="#8DE3D9"/>
<g style="mix-blend-mode:multiply" opacity="0.5">
<path d="M158.55 4.04001V0.980011H234.89V53.54H226.93C226.94 52.68 226.95 51.8 226.96 50.92C226.96 50.66 226.97 50.4 226.97 50.14C226.98 49.38 226.98 48.61 226.98 47.83C226.99 47.61 226.99 47.39 226.99 47.16C226.99 46.31 226.98 45.47 226.98 44.61C226.98 44.28 226.97 43.94 226.97 43.62C226.71 29.11 224.36 14.26 210.66 6.70001C205.5 3.86001 199.75 3.01001 193.94 2.85001C191.43 2.87001 188.92 2.92001 186.41 2.96001C184.8 3.03001 183.22 3.10001 181.66 3.16001C173.95 3.48001 166.25 3.75001 158.54 4.03001L158.55 4.04001Z" fill="#E2E2E2"/>
</g>
<g style="mix-blend-mode:multiply" opacity="0.35">
<path d="M192.12 35.95C191.63 35.72 190.82 35.47 190.49 35.7C188.17 37.31 185.93 39.04 183.66 40.75L183.86 40.95C184.96 40.52 185.84 39.63 186.79 38.88C187.68 38.18 188.61 37.46 189.73 37.15C190.28 37.01 190.75 37 191.22 37.05C195.85 39.76 202.12 39.06 205.88 34.77C210.67 29.31 209.73 20.91 203.61 16.86C202.23 15.95 200.71 15.36 199.14 15.09C198.39 13.18 197.98 10.89 198.57 8.88999C204.15 10.26 209.06 14.11 211.78 20.03C213.88 24.59 214.32 29.67 212.49 34.05C212.22 34.66 211.92 35.26 211.58 35.85C210.97 36.88 210.22 37.86 209.32 38.76C205.91 42.16 201.32 43.75 197.16 46C200.38 45.95 203.73 45.08 206.84 43.18C214.93 38.23 218.29 28.18 214.79 19.41C211.41 10.94 202.78 6.89999 197.36 7.40999V16.1C197.76 16.19 198.14 16.29 198.52 16.35C204.49 17.34 208.36 23.27 206.87 29.14C205.23 35.6 198.17 38.86 192.14 35.96L192.12 35.95Z" fill="#9785AD"/>
</g>
<g style="mix-blend-mode:multiply" opacity="0.35">
<path d="M188.95 35.56C187.84 35.8 186.83 36.42 185.92 37.1C184.84 37.92 183.49 38.74 182.6 39.77C182.73 39.9 182.86 40.02 183 40.14C185.04 38.6 187.04 37.08 189.08 35.54C189.03 35.54 188.99 35.55 188.95 35.56Z" fill="#9785AD"/>
</g>
<g style="mix-blend-mode:multiply" opacity="0.35">
<path d="M183.38 23.21C184.69 23.76 185.37 24.57 185.76 25.56C185.44 28.57 186.16 31.78 187.72 33.93C188.15 34.51 188.63 35.03 189.13 35.5C189.46 35.25 189.8 34.99 190.14 34.73C186.73 31.56 185.63 27.82 186.77 23.4C183.94 22.39 181.2 21.43 178.47 20.47C178.32 20.8 178.17 21.15 178.07 21.51C179.74 22.36 181.65 22.48 183.38 23.2V23.21Z" fill="#FF8E84"/>
</g>
<g style="mix-blend-mode:multiply" opacity="0.5">
<path d="M196.2 16.05V7.26001C193.64 7.21001 190.91 7.94001 188.36 9.17001C190.45 8.55001 192.55 8.28001 194.61 8.35001C194.94 10.36 195.53 12.33 194.73 14.33C194.64 14.56 194.47 14.9 194.33 15.27C191.23 15.78 188.44 17.51 187.03 20.47C184.35 20.89 181.55 19.92 178.91 19.28C178.89 19.36 178.87 19.43 178.86 19.51C181.59 20.48 184.32 21.46 187.05 22.43C190.1 17.91 190.36 17.72 196.21 16.05H196.2Z" fill="#FFD384"/>
</g>
<path d="M292.37 310.39V294.13C292.42 293.48 292.5 292.83 292.5 292.18C292.54 285.32 292.56 278.46 292.59 271.59C292.59 269.42 292.63 269.37 294.78 269.37C306.76 269.34 318.73 269.3 330.71 269.3C345.92 269.3 361.13 269.35 376.34 269.37C386.66 269.38 396.97 269.37 407.29 269.37C409.4 269.37 409.4 269.39 409.67 271.48C409.67 271.55 409.77 271.61 409.9 271.79C410.43 271.79 411.03 271.79 411.64 271.79C413.78 271.79 413.82 271.84 413.82 273.99C413.82 293.83 413.82 313.68 413.82 333.52C413.82 335.313 412.943 336.21 411.19 336.21C378.54 336.21 345.89 336.19 313.23 336.21C307.9 336.21 302.57 336.31 297.24 336.42C296.06 336.45 295.65 336.04 295.79 334.91C295.85 334.38 295.8 333.83 295.8 333.29C295.33 333.26 295.12 333.23 294.9 333.22C292.61 333.16 292.6 333.15 292.59 330.82C292.59 327.1 292.61 323.39 292.57 319.67C292.54 316.57 292.43 313.48 292.36 310.38L292.37 310.39ZM293.65 270.4V332.1H408.51V270.4H293.65ZM412.74 272.72H409.61C409.61 273.4 409.61 273.96 409.61 274.52C409.61 293.1 409.61 311.67 409.61 330.25C409.61 330.82 409.61 331.39 409.58 331.95C409.53 332.77 409.14 333.24 408.26 333.22C407.3 333.2 406.34 333.22 405.38 333.22C369.8 333.22 334.22 333.22 298.64 333.22C298.08 333.22 297.53 333.22 296.9 333.22V335.18H412.76V272.71L412.74 272.72Z" fill="black"/>
<path d="M293.65 270.39V332.1H408.51V270.39H293.65ZM380.31 297.54C380.51 297.46 380.75 297.52 380.97 297.52C387.88 297.52 394.77 297.52 401.68 297.54C402.12 297.54 402.54 297.73 402.97 297.82C402.95 297.97 402.92 298.14 402.88 298.3C402.51 298.32 402.13 298.39 401.75 298.39H380.9C380.68 298.39 380.45 298.43 380.26 298.37C380.05 298.3 379.88 298.13 379.68 298C379.9 297.84 380.08 297.64 380.31 297.54ZM380.77 301.18C387.8 301.16 394.83 301.17 401.85 301.2C402.21 301.2 402.56 301.47 402.92 301.63C402.56 301.77 402.21 302.05 401.86 302.06C398.32 302.08 394.79 302.07 391.25 302.07V302.09C387.76 302.09 384.27 302.1 380.78 302.07C380.41 302.06 380.05 301.74 379.68 301.57C380.05 301.44 380.41 301.19 380.77 301.19V301.18ZM388.46 308.17C388.2 308.32 387.94 308.61 387.67 308.61C385.28 308.64 382.87 308.64 380.47 308.61C380.21 308.61 379.95 308.33 379.68 308.17C379.94 308.02 380.2 307.73 380.47 307.72C381.69 307.68 382.92 307.7 384.14 307.7C385.36 307.7 386.49 307.68 387.67 307.72C387.94 307.73 388.19 308.02 388.46 308.17ZM380.32 311.26C380.96 311.24 381.62 311.24 382.28 311.24C382.94 311.24 383.59 311.25 384.24 311.25C384.83 311.24 385.41 311.24 386 311.24C386.59 311.24 387.18 311.24 387.77 311.26C388.01 311.28 388.24 311.6 388.48 311.77C388.24 311.9 388.01 312.15 387.78 312.15C385.3 312.18 382.82 312.18 380.34 312.15C380.12 312.15 379.9 311.87 379.68 311.71C379.9 311.55 380.11 311.26 380.32 311.25V311.26ZM306.64 296.55C307.28 296.36 307.96 296.27 308.65 296.27C312.63 296.3 315.85 299.58 315.83 303.58C315.82 304.6 315.61 305.56 315.23 306.43C314.13 309 311.56 310.77 308.56 310.76C304.55 310.73 301.3 307.45 301.35 303.48C301.37 300.2 303.63 297.41 306.64 296.55ZM335.53 305.39C334.73 308.47 331.95 310.72 328.59 310.76C324.59 310.78 321.31 307.56 321.29 303.58C321.27 300.62 323.09 298.02 325.68 296.88C326.54 296.5 327.51 296.28 328.5 296.27C332.47 296.24 335.74 299.48 335.77 303.48C335.77 304.15 335.69 304.78 335.53 305.39ZM374.59 310.72C374.6 313.9 373.63 316.86 371.96 319.3C369.26 323.26 364.72 325.86 359.58 325.87C351.19 325.9 344.36 319.12 344.37 310.75C344.38 304.2 348.6 298.61 354.46 296.53C356.03 295.97 357.73 295.67 359.49 295.67C367.84 295.66 374.57 302.37 374.61 310.72H374.59ZM368.47 276.59C372.47 276.63 375.67 279.92 375.64 283.91C375.63 284.81 375.47 285.66 375.16 286.43C374.13 289.18 371.47 291.1 368.35 291.07C364.35 291.03 361.1 287.74 361.16 283.78C361.19 281 362.81 278.59 365.14 277.39C366.15 276.87 367.28 276.57 368.47 276.58V276.59ZM348.5 276.59C352.48 276.61 355.71 279.88 355.7 283.88C355.7 284.42 355.65 284.93 355.53 285.43C354.82 288.69 351.93 291.09 348.45 291.08C344.45 291.06 341.2 287.79 341.23 283.82C341.25 280.83 343.13 278.22 345.75 277.14C346.6 276.78 347.53 276.58 348.5 276.58V276.59ZM328.55 276.59C332.53 276.6 335.77 279.87 335.76 283.87C335.76 284.39 335.71 284.92 335.59 285.41C335.59 285.43 335.58 285.45 335.58 285.48C335.55 285.63 335.51 285.78 335.46 285.92C335.46 285.96 335.45 286 335.44 286.03C335.18 286.87 334.77 287.65 334.24 288.33C334.23 288.34 334.23 288.35 334.22 288.35C333.48 289.3 332.49 290.05 331.37 290.52C331.36 290.52 331.35 290.53 331.33 290.54C330.47 290.9 329.53 291.09 328.53 291.09C324.53 291.07 321.27 287.81 321.29 283.84C321.3 280.91 323.09 278.36 325.63 277.23C326.53 276.83 327.52 276.6 328.56 276.6L328.55 276.59ZM301.41 282.96C301.8 279.79 304.3 277.22 307.41 276.7C307.79 276.62 308.19 276.59 308.59 276.59C312.57 276.59 315.83 279.85 315.83 283.85C315.83 285.4 315.35 286.84 314.53 288.01C313.28 289.79 311.25 290.98 308.9 291.07C308.8 291.08 308.7 291.08 308.6 291.08C304.6 291.08 301.34 287.83 301.34 283.86C301.34 283.55 301.36 283.26 301.41 282.96Z" fill="white"/>
<path d="M412.73 272.72V335.19H296.87V333.22H405.35C406.31 333.22 407.27 333.2 408.24 333.22C409.13 333.23 409.52 332.77 409.56 331.95C409.59 331.38 409.59 330.81 409.59 330.25C409.6 311.67 409.6 293.09 409.6 274.52V272.72H412.73Z" fill="#F2F2F2"/>
<path d="M359.47 295.68C357.71 295.68 356.02 295.99 354.44 296.54C348.58 298.62 344.36 304.21 344.35 310.76C344.34 319.12 351.17 325.91 359.56 325.88C364.71 325.87 369.24 323.27 371.94 319.31C373.61 316.87 374.58 313.91 374.57 310.73C374.54 302.38 367.8 295.67 359.45 295.68H359.47ZM370.19 319.88C367.64 322.89 363.85 324.81 359.62 324.83C351.77 324.87 345.38 318.56 345.4 310.75C345.42 304.49 349.57 299.15 355.28 297.36C356.59 296.96 357.98 296.74 359.41 296.73C367.2 296.7 373.51 302.95 373.53 310.74C373.54 314.22 372.28 317.42 370.19 319.88Z" fill="black"/>
<path d="M315.83 283.86C315.83 287.88 312.63 291.09 308.61 291.09C304.61 291.09 301.35 287.84 301.35 283.87C301.35 279.91 304.64 276.62 308.6 276.61C312.58 276.61 315.83 279.86 315.83 283.86ZM308.56 290.04C311.98 290.07 314.74 287.36 314.78 283.94C314.82 280.54 312.11 277.73 308.71 277.66C305.32 277.59 302.4 280.45 302.39 283.86C302.38 287.25 305.15 290.02 308.56 290.05V290.04Z" fill="black"/>
<path d="M335.76 283.88C335.76 287.9 332.53 291.1 328.52 291.09C324.52 291.08 321.26 287.82 321.28 283.85C321.3 279.88 324.59 276.6 328.55 276.61C332.53 276.61 335.77 279.88 335.76 283.88ZM334.71 283.9C334.73 280.5 332 277.7 328.6 277.66C325.2 277.62 322.3 280.5 322.32 283.9C322.34 287.29 325.12 290.04 328.53 290.05C331.95 290.05 334.69 287.33 334.71 283.91V283.9Z" fill="black"/>
<path d="M355.69 283.89C355.68 287.91 352.45 291.11 348.44 291.09C344.44 291.07 341.19 287.81 341.21 283.84C341.23 279.87 344.53 276.59 348.49 276.61C352.47 276.62 355.71 279.89 355.69 283.89ZM354.64 283.8C354.6 280.39 351.81 277.63 348.43 277.65C345.06 277.68 342.25 280.49 342.25 283.85C342.25 287.29 345.1 290.09 348.55 290.03C351.98 289.98 354.67 287.21 354.64 283.79V283.8Z" fill="black"/>
<path d="M375.63 283.93C375.59 287.95 372.35 291.13 368.34 291.09C364.34 291.05 361.1 287.76 361.15 283.8C361.2 279.83 364.52 276.56 368.47 276.61C372.46 276.65 375.67 279.94 375.63 283.93ZM374.58 283.93C374.61 280.53 371.89 277.73 368.49 277.66C365.1 277.6 362.19 280.47 362.19 283.88C362.19 287.27 364.97 290.03 368.38 290.05C371.8 290.07 374.55 287.35 374.58 283.93Z" fill="black"/>
<path d="M308.64 296.27C307.95 296.27 307.27 296.37 306.63 296.55C303.62 297.41 301.36 300.2 301.34 303.48C301.3 307.45 304.54 310.73 308.55 310.76C311.54 310.77 314.11 309 315.22 306.43C315.6 305.56 315.81 304.59 315.82 303.58C315.84 299.58 312.62 296.3 308.64 296.27ZM308.63 309.71C305.22 309.73 302.43 307 302.38 303.6C302.35 301.11 303.9 298.88 306.07 297.88C306.86 297.51 307.72 297.31 308.62 297.31C312.01 297.33 314.77 300.11 314.77 303.52C314.77 304.49 314.55 305.41 314.15 306.23C313.17 308.28 311.08 309.69 308.63 309.71Z" fill="black"/>
<path d="M328.49 296.27C327.5 296.28 326.53 296.5 325.67 296.88C323.08 298.02 321.25 300.62 321.28 303.58C321.3 307.56 324.58 310.78 328.58 310.76C331.94 310.73 334.72 308.48 335.52 305.39C335.68 304.78 335.76 304.14 335.76 303.48C335.73 299.48 332.46 296.23 328.49 296.27ZM328.5 309.71C325.09 309.69 322.32 306.92 322.31 303.53C322.31 301.36 323.5 299.39 325.26 298.27C326.24 297.65 327.4 297.29 328.62 297.31C332.02 297.38 334.74 300.17 334.71 303.58C334.7 304.32 334.57 305.04 334.31 305.7C333.45 308.06 331.17 309.71 328.51 309.7L328.5 309.71Z" fill="black"/>
<path d="M391.25 302.09C387.76 302.09 384.27 302.11 380.78 302.07C380.41 302.07 380.05 301.74 379.68 301.57C380.05 301.44 380.41 301.18 380.78 301.18C387.81 301.16 394.83 301.18 401.86 301.2C402.22 301.2 402.57 301.48 402.93 301.63C402.58 301.78 402.22 302.05 401.87 302.05C398.34 302.08 394.8 302.07 391.27 302.07V302.09H391.25Z" fill="black"/>
<path d="M402.88 298.3C402.5 298.33 402.13 298.39 401.75 298.39C394.8 298.39 387.85 298.39 380.91 298.39C380.69 298.39 380.46 298.43 380.26 298.37C380.05 298.3 379.88 298.12 379.69 297.99C379.9 297.83 380.09 297.63 380.32 297.53C380.51 297.45 380.75 297.51 380.97 297.51C387.87 297.51 394.78 297.51 401.68 297.53C402.11 297.53 402.54 297.71 402.97 297.81C402.94 297.97 402.91 298.13 402.88 298.29V298.3Z" fill="black"/>
<path d="M384.23 311.25C385.41 311.25 386.58 311.22 387.75 311.27C387.99 311.28 388.22 311.6 388.46 311.77C388.23 311.91 388 312.16 387.76 312.16C385.28 312.19 382.8 312.19 380.32 312.16C380.1 312.16 379.89 311.87 379.67 311.72C379.88 311.56 380.09 311.28 380.31 311.27C381.61 311.23 382.92 311.25 384.23 311.25Z" fill="black"/>
<path d="M384.14 307.71C385.32 307.71 386.5 307.68 387.67 307.73C387.94 307.74 388.2 308.02 388.46 308.17C388.2 308.32 387.94 308.61 387.68 308.61C385.28 308.64 382.88 308.64 380.48 308.61C380.21 308.61 379.95 308.33 379.68 308.17C379.94 308.01 380.2 307.73 380.47 307.72C381.69 307.67 382.91 307.7 384.14 307.7V307.71Z" fill="black"/>
<path d="M373.53 310.74C373.54 314.22 372.28 317.42 370.19 319.88C367.64 322.89 363.85 324.81 359.62 324.83C351.77 324.87 345.38 318.56 345.4 310.75C345.42 304.49 349.57 299.15 355.28 297.36C356.59 296.96 357.98 296.74 359.41 296.73C367.2 296.7 373.51 302.95 373.53 310.74Z" fill="#FFD384"/>
<path d="M314.78 283.93C314.76 285.44 314.22 286.8 313.34 287.85C313.34 287.85 313.337 287.853 313.33 287.86C312.18 289.2 310.48 290.05 308.56 290.03C305.15 290 302.37 287.22 302.38 283.83C302.39 280.99 304.42 278.53 307.08 277.84C307.59 277.69 308.14 277.62 308.7 277.63C312.11 277.71 314.82 280.52 314.78 283.91V283.93Z" fill="#9782CC"/>
<path d="M334.71 283.9C334.71 284.22 334.69 284.52 334.63 284.83C334.17 287.8 331.64 290.04 328.52 290.04C325.11 290.03 322.33 287.29 322.31 283.89C322.3 281.52 323.71 279.4 325.72 278.35C326.58 277.89 327.57 277.64 328.59 277.65C331.99 277.69 334.72 280.49 334.7 283.9H334.71Z" fill="#FFD384"/>
<path d="M354.65 283.8C354.65 284.32 354.6 284.84 354.48 285.33C353.84 288.01 351.46 290 348.57 290.04C345.12 290.09 342.26 287.29 342.26 283.85C342.27 281.31 343.88 279.07 346.13 278.13C346.85 277.82 347.63 277.65 348.45 277.64C351.83 277.62 354.62 280.38 354.66 283.79L354.65 283.8Z" fill="#9782CC"/>
<path d="M374.58 283.92C374.57 284.88 374.34 285.8 373.94 286.6C372.95 288.65 370.84 290.05 368.38 290.04C364.97 290.02 362.2 287.25 362.19 283.86C362.19 281.72 363.35 279.78 365.06 278.67C366.05 278 367.25 277.62 368.49 277.64C371.89 277.71 374.61 280.5 374.58 283.91V283.92Z" fill="#8DE3D9"/>
<path d="M314.78 303.53C314.78 304.5 314.56 305.42 314.16 306.24C313.18 308.29 311.09 309.7 308.64 309.72C305.23 309.74 302.44 307.01 302.39 303.61C302.36 301.12 303.91 298.89 306.08 297.89C306.87 297.52 307.73 297.32 308.63 297.32C312.02 297.34 314.78 300.12 314.78 303.53Z" fill="#8DE3D9"/>
<path d="M334.71 303.6C334.7 304.34 334.57 305.06 334.31 305.72C333.45 308.08 331.17 309.73 328.51 309.72C325.1 309.7 322.33 306.93 322.32 303.54C322.32 301.37 323.51 299.4 325.27 298.28C326.25 297.66 327.41 297.3 328.63 297.32C332.03 297.39 334.75 300.18 334.72 303.59L334.71 303.6Z" fill="#9782CC"/>
<g style="mix-blend-mode:multiply" opacity="0.35">
<path d="M408.51 291.05C408.41 287.07 408.37 283.09 408.51 279.17V291.05Z" fill="#A5A5A5"/>
</g>
<g style="mix-blend-mode:multiply" opacity="0.5">
<path d="M408.51 332.1H293.65V270.39H297.8C297.69 276.37 296.82 282.34 297.1 288.36C297.4 294.94 298.21 301.55 299.84 307.93C301.53 314.6 304.5 320.77 310.51 324.51C316.08 327.96 322.7 328.91 329.12 329.26C341.81 329.97 354.61 330.12 367.33 330.4C374.02 329.46 380.86 329.54 387.6 329.48C394.21 329.41 401.79 328.42 408.5 329.37V332.09L408.51 332.1Z" fill="#E2E2E2"/>
</g>
<g style="mix-blend-mode:multiply" opacity="0.5">
<path d="M412.73 272.72V335.19H296.87V333.22H405.35C406.31 333.22 407.27 333.2 408.24 333.22C409.13 333.23 409.52 332.77 409.56 331.95C409.59 331.38 409.59 330.81 409.59 330.25C409.6 311.67 409.6 293.09 409.6 274.52V272.72H412.73Z" fill="#E2E2E2"/>
</g>
<g style="mix-blend-mode:multiply" opacity="0.35">
<path d="M313.32 287.87C312.17 289.21 310.47 290.06 308.55 290.04C305.14 290.01 302.36 287.23 302.37 283.84C302.38 281 304.41 278.54 307.07 277.85C305.99 280.33 304.88 282.59 306 285.43C306.61 287 308 288.35 309.76 288.45C310.65 288.49 312.37 288.35 313.31 287.86L313.32 287.87Z" fill="#9785AD"/>
</g>
<g style="mix-blend-mode:multiply" opacity="0.5">
<path d="M334.63 284.83C334.17 287.8 331.64 290.04 328.52 290.04C325.11 290.03 322.33 287.29 322.31 283.89C322.3 281.52 323.71 279.4 325.72 278.35C325.51 279.42 324.91 280.39 324.83 281.53C324.72 283.17 325.2 284.8 326.36 285.99C328.63 288.31 332.44 287.52 334.29 285.06C334.38 284.95 334.49 284.86 334.62 284.83H334.63Z" fill="#FFD384"/>
</g>
<g style="mix-blend-mode:multiply" opacity="0.35">
<path d="M354.47 285.33C353.83 288.01 351.45 290 348.56 290.04C345.11 290.09 342.25 287.29 342.25 283.85C342.26 281.31 343.87 279.07 346.12 278.13V278.21C346.19 279.87 345.07 281.14 345.5 282.98C346.43 287.07 351.13 287.7 354.12 285.5C354.23 285.42 354.35 285.36 354.47 285.33Z" fill="#9785AD"/>
</g>
<g style="mix-blend-mode:multiply" opacity="0.35">
<path d="M373.94 286.6C372.95 288.65 370.84 290.05 368.38 290.04C364.97 290.02 362.2 287.25 362.19 283.86C362.19 281.72 363.35 279.78 365.06 278.67C364.6 281.02 363.36 282.92 364.91 285.48C366.82 288.62 370.79 289.12 373.55 286.85C373.67 286.75 373.8 286.66 373.93 286.6H373.94Z" fill="#FF8E84"/>
</g>
<g style="mix-blend-mode:multiply" opacity="0.35">
<path d="M334.31 305.72C333.45 308.08 331.17 309.73 328.51 309.72C325.1 309.7 322.33 306.93 322.32 303.54C322.32 301.37 323.51 299.4 325.27 298.28C325.12 298.65 324.94 299.01 324.77 299.37C324.77 299.46 324.76 299.53 324.75 299.63C324.62 301.29 324.77 302.89 325.67 304.34C326.56 305.79 328 306.83 329.62 307.3C329.75 307.34 329.97 307.39 330.21 307.44C331.57 307.12 332.92 306.36 334.32 305.7L334.31 305.72Z" fill="#9785AD"/>
</g>
<g style="mix-blend-mode:multiply" opacity="0.35">
<path d="M314.15 306.24C313.17 308.29 311.08 309.7 308.63 309.72C305.22 309.74 302.43 307.01 302.38 303.61C302.35 301.12 303.9 298.89 306.07 297.89C305.03 299.7 303.87 301.22 305.23 303.57C306.56 305.89 310.74 308.75 313.23 306.67C313.54 306.42 313.85 306.28 314.15 306.23V306.24Z" fill="#FF8E84"/>
</g>
<g style="mix-blend-mode:multiply" opacity="0.5">
<path d="M370.19 319.88C367.64 322.89 363.85 324.81 359.62 324.83C351.77 324.87 345.38 318.56 345.4 310.75C345.42 304.49 349.57 299.15 355.28 297.36C355.19 297.67 355.09 297.96 355 298.26C354.97 298.4 354.92 298.53 354.86 298.68C353.09 303.88 351.13 308.7 354.32 314.11C357.6 319.69 364.29 321.43 370.19 319.88Z" fill="#FFD384"/>
</g>
<path d="M340.73 255.89C338.35 255.89 336.18 255.89 334 255.89C320.32 255.89 306.64 255.9 292.96 255.89C291.02 255.89 290.95 255.87 290.94 253.94C290.91 243.8 290.91 233.66 290.94 223.52C290.94 223 291.16 222.36 291.5 221.98C293.93 219.29 296.4 216.64 298.92 214.03C299.23 213.71 299.85 213.54 300.33 213.54C312.92 213.52 325.51 213.52 338.1 213.54C340.73 213.54 340.74 213.57 340.74 216.21C340.74 228.36 340.74 240.51 340.74 252.66V255.89H340.73ZM291.99 223.1V254.81H339.57V214.44H300.34C300.34 216.81 300.34 219.08 300.34 221.35C300.34 222.96 300.22 223.09 298.65 223.1C296.47 223.11 294.3 223.1 291.98 223.1H291.99ZM299.35 215.23C299.26 215.17 299.16 215.11 299.07 215.05C296.97 217.3 294.87 219.55 292.55 222.05H299.36V215.23H299.35Z" fill="black"/>
<path d="M300.35 214.44V221.35C300.35 222.96 300.24 223.09 298.67 223.09C297.71 223.1 296.76 223.1 295.78 223.1H292V254.81H339.57V214.45H300.35V214.44Z" fill="white"/>
<path d="M299.36 215.23V222.05H292.55C294.88 219.55 296.98 217.3 299.07 215.05C299.16 215.11 299.26 215.17 299.35 215.23H299.36Z" fill="#F2F2F2"/>
<g style="mix-blend-mode:multiply" opacity="0.5">
<path d="M339.57 249.82V254.8H292V223.09H295.78C295.77 223.22 295.77 223.36 295.76 223.49C295.95 223.87 296.01 224.32 295.9 224.8C295.8 225.28 295.71 225.75 295.64 226.22C295.62 232.2 297.17 237.58 300.49 241.84C300.74 242.18 301.01 242.51 301.3 242.82C302.02 243.64 302.81 244.43 303.68 245.15C304.08 245.5 304.51 245.83 304.96 246.16C306.19 247.06 307.57 247.86 309.08 248.58C309.51 248.79 309.93 248.97 310.38 249.16C310.76 249.32 311.16 249.47 311.54 249.61C320.59 252.93 330.27 251.64 339.57 249.82Z" fill="#E2E2E2"/>
</g>
<path d="M315.78 246.29C311.39 246.29 307 246.29 302.61 246.29C302.36 246.29 302.09 246.36 301.86 246.27C301.64 246.18 301.47 245.92 301.27 245.74C301.45 245.58 301.61 245.38 301.81 245.29C301.97 245.22 302.17 245.27 302.34 245.27C311.3 245.27 320.26 245.27 329.22 245.27C329.44 245.27 329.67 245.22 329.86 245.3C330.03 245.37 330.15 245.59 330.29 245.74C330.16 245.91 330.06 246.19 329.91 246.24C329.64 246.33 329.34 246.28 329.05 246.28C324.62 246.28 320.2 246.28 315.77 246.28L315.78 246.29Z" fill="black"/>
<path d="M315.65 233.28C311.3 233.28 306.94 233.28 302.59 233.28C302.34 233.28 302.07 233.33 301.84 233.26C301.64 233.2 301.46 232.99 301.28 232.84C301.48 232.66 301.66 232.44 301.88 232.33C302.03 232.25 302.23 232.31 302.41 232.31C311.33 232.31 320.26 232.31 329.18 232.31C329.43 232.31 329.69 232.28 329.93 232.36C330.07 232.4 330.28 232.67 330.26 232.75C330.2 232.95 330.05 233.19 329.89 233.24C329.62 233.32 329.32 233.28 329.03 233.28C324.57 233.28 320.11 233.28 315.64 233.28H315.65Z" fill="black"/>
<path d="M315.88 238.77C320.27 238.77 324.66 238.77 329.06 238.77C329.35 238.77 329.64 238.74 329.92 238.8C330.06 238.83 330.29 239.09 330.27 239.15C330.21 239.35 330.08 239.61 329.93 239.67C329.7 239.76 329.43 239.71 329.18 239.72C320.29 239.73 311.4 239.74 302.5 239.76C302.36 239.76 302.19 239.81 302.07 239.75C301.79 239.6 301.54 239.38 301.27 239.2C301.53 239.05 301.79 238.79 302.05 238.78C304.1 238.75 306.15 238.76 308.21 238.77C310.77 238.77 313.32 238.77 315.88 238.77Z" fill="black"/>
<path d="M315.88 225.82C320.27 225.82 324.66 225.82 329.06 225.82C329.35 225.82 329.64 225.79 329.92 225.85C330.06 225.88 330.29 226.14 330.27 226.2C330.21 226.4 330.08 226.66 329.93 226.72C329.7 226.81 329.43 226.76 329.18 226.77C320.29 226.78 311.4 226.79 302.5 226.81C302.36 226.81 302.19 226.86 302.07 226.8C301.79 226.65 301.54 226.43 301.27 226.25C301.53 226.1 301.79 225.84 302.05 225.83C304.1 225.8 306.15 225.81 308.21 225.82C310.77 225.82 313.32 225.82 315.88 225.82Z" fill="black"/>
</g>
<defs>
<clipPath id="clip0_283_903">
<rect width="413.83" height="369.5" fill="white"/>
</clipPath>
</defs>
</svg>
