<svg width="38" height="33" viewBox="0 0 38 33" fill="none" xmlns="http://www.w3.org/2000/svg">
<g clip-path="url(#clip0_241_3410)">
<path d="M28.3531 10.6222C30.3314 9.48964 31.0275 7.05416 29.8825 5.09247C26.8402 -0.119295 15.6499 -0.79882 8.74659 3.65238C5.0622 6.0276 2.04902 9.81382 0.743997 14.0136C-0.442574 17.8393 0.413586 21.6712 2.5623 24.8402C4.51151 27.7163 7.53093 30.0458 11.0491 31.3238C17.0401 33.4974 24.3029 31.8662 29.5001 28.0114C31.3122 26.6669 33.5461 24.888 34.0095 22.6853C34.529 20.2103 32.9767 18.2902 30.986 17.0683C30.9299 17.033 30.8737 16.9997 30.8176 16.9665C29.656 16.2828 28.2492 16.0771 27.046 15.4599C26.194 15.0235 25.2464 14.1653 25.3669 13.1096C25.5414 11.5532 27.2434 11.2601 28.3551 10.6222H28.3531ZM26.1067 23.3711C26.1379 25.5177 23.7294 26.8414 21.803 26.5359C19.7686 26.2138 18.9706 24.3561 19.6938 22.7435C20.951 19.9485 26.0527 19.67 26.1067 23.3711Z" fill="#332FBA"/>
<g opacity="0.25">
<path d="M34.0078 22.6852C33.5444 24.888 31.3105 26.6668 29.4984 28.0113C24.3012 31.8661 17.0384 33.4974 11.0473 31.3237C7.52918 30.0478 4.50976 27.7183 2.56055 24.8402C3.27748 24.3996 4.04844 24.1087 4.86927 24.2064C5.77946 24.3144 6.55457 24.888 7.32138 25.3888C13.5909 29.4742 25.1802 30.3117 29.8579 23.2567C31.5515 20.7048 30.845 18.6787 30.9821 17.0703C32.9729 18.2922 34.5273 20.2103 34.0057 22.6873L34.0078 22.6852Z" fill="#0A1640"/>
</g>
<g opacity="0.5">
<path d="M8.83449 15.4827C9.68234 16.1975 10.152 17.1888 10.233 18.2133C10.3099 19.2107 10.0065 20.2414 9.31037 21.0664C7.89937 22.7413 5.39739 22.9533 3.72455 21.5423C2.36758 20.3973 1.97275 18.5416 2.6211 16.9851C2.7728 16.6194 2.98269 16.2723 3.24868 15.9565C4.6576 14.2857 7.15958 14.0717 8.83242 15.4827H8.83449Z" fill="#0A1640"/>
<path d="M13.6255 7.13723C14.4734 7.85208 14.943 8.84331 15.024 9.86779C15.1009 10.8653 14.7975 11.896 14.1014 12.721C12.6904 14.3959 10.1884 14.6078 8.51557 13.1968C7.1586 12.0518 6.76377 10.1961 7.41212 8.63966C7.56382 8.27392 7.7737 7.92689 8.03969 7.61102C9.44862 5.94027 11.9506 5.72623 13.6234 7.13723H13.6255Z" fill="#0A1640"/>
<path d="M22.3931 2.80446C23.2409 3.51931 23.7106 4.51055 23.7916 5.53503C23.8685 6.5325 23.5651 7.56321 22.869 8.3882C21.458 10.0631 18.956 10.2751 17.2831 8.86408C15.9262 7.71907 15.5313 5.86336 16.1797 4.3069C16.3314 3.94116 16.5413 3.59412 16.8073 3.27826C18.2162 1.6075 20.7182 1.39346 22.391 2.80446H22.3931Z" fill="#0A1640"/>
</g>
<path d="M21.8647 3.43002C22.5359 3.99733 22.9099 4.78491 22.9743 5.59535C23.0346 6.38709 22.7936 7.20377 22.2429 7.85836C21.1228 9.18624 19.1403 9.35456 17.8125 8.23449C16.736 7.32638 16.4222 5.85303 16.9376 4.62075C17.0581 4.3319 17.2244 4.05551 17.4363 3.80407C18.5543 2.47827 20.5368 2.30995 21.8647 3.42794V3.43002Z" fill="#D811AD"/>
<path d="M13.0971 7.76474C13.7683 8.33205 14.1423 9.11963 14.2068 9.93007C14.267 10.7218 14.026 11.5385 13.4753 12.1931C12.3552 13.521 10.3728 13.6893 9.04487 12.5692C7.96844 11.6611 7.65465 10.1877 8.17001 8.95546C8.29054 8.66661 8.45678 8.39023 8.66874 8.13879C9.78674 6.81299 11.7692 6.64466 13.0971 7.76266V7.76474Z" fill="#6B7FFF"/>
<path d="M8.30796 16.1103C8.97917 16.6776 9.35322 17.4652 9.41764 18.2757C9.47791 19.0674 9.23685 19.8841 8.68617 20.5387C7.56609 21.8665 5.58363 22.0349 4.25575 20.9148C3.17932 20.0067 2.86553 18.5333 3.38089 17.301C3.50141 17.0122 3.66766 16.7358 3.87962 16.4844C4.99762 15.1586 6.98008 14.9902 8.30796 16.1082V16.1103Z" fill="#FFCE00"/>
<path opacity="0.5" d="M9.41764 18.2757C9.47791 19.0674 9.23685 19.8841 8.68617 20.5387C7.56609 21.8666 5.58363 22.0349 4.25575 20.9148C3.17932 20.0067 2.86553 18.5334 3.38089 17.3011C4.02301 17.3385 4.91657 17.6772 6.08444 18.7474C7.51206 20.0545 8.65084 19.3085 9.41764 18.2757Z" fill="#E38921"/>
<path d="M18.5529 4.03884C18.6943 3.91831 18.8397 3.83311 18.9997 3.75622C19.0787 3.71674 19.1618 3.68972 19.2449 3.65647C19.3281 3.62738 19.4174 3.60868 19.5026 3.58582C19.8538 3.50893 20.2424 3.52971 20.5936 3.66686C20.9406 3.80817 21.2482 4.03676 21.4622 4.31937C21.5246 4.38587 21.5682 4.46068 21.6139 4.53549L21.7469 4.75992C21.8155 4.91785 21.8778 5.07579 21.9319 5.2358C21.9589 5.31892 21.9152 5.40828 21.8321 5.43737C21.7677 5.45815 21.6991 5.43737 21.6596 5.3875L21.6472 5.37087C21.5474 5.24827 21.4601 5.11943 21.3708 4.99682L21.2232 4.8285C21.1734 4.77239 21.1318 4.71005 21.0757 4.66641C21.0217 4.61861 20.9697 4.57082 20.9178 4.51887C20.8658 4.46899 20.8035 4.43782 20.7494 4.39626C20.7204 4.37756 20.6933 4.3547 20.6663 4.33392L20.5749 4.2882C20.5125 4.26119 20.4564 4.21755 20.3899 4.203C20.1406 4.10118 19.8642 4.07001 19.5795 4.09287C19.2969 4.1178 18.9956 4.19469 18.7213 4.29444L18.7067 4.30067C18.6278 4.32976 18.5384 4.2882 18.5093 4.20924C18.4864 4.1469 18.5072 4.0804 18.555 4.03884H18.5529Z" fill="white"/>
<path d="M9.78524 8.3716C9.92655 8.25107 10.072 8.16587 10.232 8.08898C10.311 8.0495 10.3941 8.02249 10.4772 7.98924C10.5604 7.96014 10.6497 7.94144 10.7349 7.91858C11.0861 7.8417 11.4747 7.86248 11.8259 7.99963C12.1729 8.14094 12.4805 8.36952 12.6945 8.65214C12.7569 8.71864 12.8005 8.79345 12.8462 8.86826L12.9792 9.09269C13.0478 9.25062 13.1122 9.40855 13.1642 9.56856C13.1912 9.65168 13.1475 9.74104 13.0644 9.76805C13 9.78883 12.9314 9.76805 12.8919 9.71818L12.8795 9.70156C12.7797 9.57895 12.6924 9.45011 12.6052 9.32751L12.4576 9.15918C12.4077 9.10308 12.3662 9.04073 12.3101 8.9971C12.2561 8.9493 12.2041 8.9015 12.1521 8.84955C12.1002 8.79968 12.0379 8.76851 11.9838 8.72695C11.9547 8.70825 11.9277 8.68539 11.9007 8.66461L11.8093 8.61889C11.7469 8.59187 11.6908 8.54823 11.6243 8.53369C11.375 8.43186 11.0986 8.40069 10.8139 8.42355C10.5313 8.44849 10.2299 8.5233 9.95564 8.62512L9.94109 8.63136C9.86213 8.66045 9.77277 8.61889 9.74368 8.53992C9.72082 8.47758 9.7416 8.41108 9.7894 8.36952L9.78524 8.3716Z" fill="white"/>
<path d="M4.99422 16.7171C5.13553 16.5965 5.281 16.5113 5.44101 16.4344C5.51997 16.395 5.6031 16.3679 5.68622 16.3347C5.76934 16.3056 5.8587 16.2869 5.9439 16.264C6.29509 16.1872 6.68368 16.2079 7.03488 16.3451C7.38191 16.4864 7.68946 16.715 7.9035 16.9976C7.96585 17.0641 8.00948 17.1389 8.0552 17.2137L8.1882 17.4381C8.25677 17.5961 8.32119 17.754 8.37314 17.914C8.40016 17.9971 8.35652 18.0865 8.2734 18.1135C8.20898 18.1343 8.1404 18.1135 8.10092 18.0636L8.08845 18.047C7.9887 17.9244 7.90143 17.7956 7.81415 17.673L7.66661 17.5046C7.61673 17.4485 7.57517 17.3862 7.51906 17.3426C7.46503 17.2948 7.41308 17.247 7.36113 17.195C7.30918 17.1451 7.24684 17.114 7.19281 17.0724C7.16372 17.0537 7.1367 17.0308 7.10969 17.0101L7.01825 16.9643C6.95591 16.9373 6.8998 16.8937 6.8333 16.8791C6.58394 16.7773 6.30756 16.7462 6.02286 16.769C5.74025 16.7939 5.43893 16.8688 5.16463 16.9706L5.15008 16.9768C5.07111 17.0059 4.98176 16.9643 4.95266 16.8854C4.9298 16.823 4.95058 16.7565 4.99838 16.715L4.99422 16.7171Z" fill="white"/>
<g opacity="0.25">
<path d="M22.9763 5.59741C23.0366 6.38915 22.7955 7.20583 22.2448 7.86042C21.1247 9.18829 19.1423 9.35662 17.8144 8.23654C16.738 7.32843 16.4242 5.85509 16.9395 4.6228C17.5817 4.66021 18.4752 4.99893 19.6431 6.06913C21.0707 7.37623 22.2095 6.63021 22.9763 5.59741Z" fill="#0A1640"/>
<path d="M14.2087 9.93018C14.269 10.7219 14.0279 11.5386 13.4772 12.1932C12.3572 13.5211 10.3747 13.6894 9.04683 12.5693C7.97039 11.6612 7.65661 10.1879 8.17196 8.95557C8.81408 8.99297 9.70765 9.3317 10.8755 10.4019C12.3031 11.709 13.4419 10.963 14.2087 9.93018Z" fill="#0A1640"/>
</g>
<path d="M16.8091 32.4999C14.7809 32.4999 12.8026 32.1778 10.9781 31.517C7.43709 30.2328 4.38858 27.9033 2.38949 24.9545C0.06207 21.5257 -0.592518 17.6169 0.546257 13.9512C1.84296 9.77222 4.79173 5.95483 8.63405 3.47778C12.7756 0.807479 18.8747 -0.189988 23.8143 0.990348C26.7485 1.69273 28.9678 3.11204 30.0609 4.98645C30.6324 5.96522 30.7882 7.09984 30.5014 8.17835C30.2064 9.28387 29.479 10.2169 28.4566 10.8029C28.1823 10.9609 27.8706 11.098 27.5714 11.231C26.6051 11.6612 25.6928 12.0664 25.5723 13.1324C25.4663 14.0634 26.3142 14.8489 27.1412 15.2749C27.6815 15.5534 28.2821 15.7508 28.8639 15.942C29.5601 16.1706 30.277 16.4095 30.9233 16.7877C30.9815 16.821 31.0376 16.8563 31.0958 16.8916C34.4435 18.9468 34.4872 21.4301 34.2129 22.7268C33.7432 24.9607 31.5987 26.7105 29.6245 28.1776C25.8237 30.9975 21.2001 32.502 16.8112 32.502L16.8091 32.4999ZM19.4503 0.91346C15.6849 0.91346 11.774 1.94625 8.85849 3.8269C5.15331 6.21666 2.19208 10.0465 0.943166 14.0759C-0.156126 17.619 0.479759 21.3989 2.73445 24.7238C4.68367 27.5999 7.66152 29.8733 11.1194 31.1284C12.8982 31.7747 14.8308 32.0885 16.8133 32.0885C21.1128 32.0885 25.6471 30.613 29.3751 27.8451C31.289 26.4258 33.365 24.7363 33.8056 22.6437C34.3895 19.8695 32.22 18.072 30.8755 17.247C30.8215 17.2137 30.7654 17.1805 30.7113 17.1472C30.1045 16.7898 29.4063 16.5612 28.7309 16.3368C28.1345 16.1394 27.5194 15.9378 26.948 15.6448C25.9983 15.1565 25.0278 14.2276 25.1567 13.0867C25.3042 11.7817 26.4181 11.2871 27.401 10.8507C27.7044 10.7157 27.9932 10.5889 28.2488 10.4414C29.1756 9.91145 29.8323 9.06776 30.0983 8.07029C30.3581 7.09984 30.2168 6.07951 29.7014 5.19634C28.6644 3.42167 26.5407 2.07094 23.7166 1.39557C22.3617 1.07139 20.9154 0.915538 19.4503 0.915538V0.91346Z" fill="#0A1640"/>
<path d="M22.3619 26.7874C22.1624 26.7874 21.9629 26.7728 21.7717 26.7416C20.7722 26.5837 19.9846 26.06 19.5565 25.2683C19.1326 24.4828 19.1139 23.531 19.5046 22.6583C20.3025 20.8815 22.4201 20.1604 24.0098 20.4888C25.4312 20.7838 26.2936 21.8603 26.3144 23.369C26.3268 24.2667 25.9299 25.1124 25.1943 25.7483C24.4337 26.4071 23.3718 26.7874 22.3619 26.7874ZM23.2513 20.8296C21.9629 20.8296 20.4792 21.5029 19.8828 22.8287C19.544 23.583 19.5565 24.4017 19.9202 25.0709C20.2859 25.7462 20.9654 26.193 21.8341 26.3302C22.8876 26.4964 24.0991 26.1452 24.9221 25.4325C25.3751 25.0397 25.9112 24.3643 25.8987 23.3731C25.88 22.0535 25.161 21.1496 23.9246 20.894C23.7105 20.8503 23.484 20.8275 23.2513 20.8275V20.8296Z" fill="#0A1640"/>
<path d="M17.1868 21.6669C17.2263 21.804 17.2533 21.9516 17.2658 22.1053C17.3489 23.1215 17.0434 24.0338 16.5675 24.7673C15.6906 26.1264 14.2235 26.8641 13.5689 26.4817C13.5398 26.4672 13.5107 26.4464 13.4858 26.4256C13.6479 26.2282 13.7975 26.0308 13.9118 25.8147C14.0718 25.5175 14.157 25.1809 14.1175 24.7715V24.7507C13.7227 25.0208 13.2946 25.2598 12.9372 25.5715C12.0311 26.3612 11.3225 27.288 11.3267 28.6574C11.3267 28.8195 11.2976 28.9421 11.2311 28.9982C11.1584 29.0627 11.042 29.046 10.8716 28.9214C10.7074 28.7988 10.5536 28.6471 10.4227 28.4912C9.1468 26.9098 8.69586 25.2661 9.3172 23.6722C9.64345 22.8368 10.1692 22.1407 10.8009 21.5962C11.9148 20.6278 13.3549 20.1229 14.5934 20.1187C14.9757 20.1187 15.3373 20.1644 15.6657 20.26C15.9441 20.3411 16.1976 20.4574 16.4179 20.6091C16.7837 20.8627 17.0538 21.2159 17.1847 21.671L17.1868 21.6669Z" fill="#FFCE00"/>
<path d="M37.5332 2.65886C37.5124 2.89576 37.4272 3.11396 37.3337 3.31137C36.8142 4.40859 36.1201 5.52866 35.3055 6.63834C32.5084 10.4682 28.3191 14.2066 25.1417 16.6504C23.5478 17.8765 22.1576 18.822 20.8381 19.6324C20.6822 19.728 20.5284 19.8195 20.3746 19.9109C20.2791 19.967 20.1835 20.0231 20.09 20.0792C20.065 20.0958 20.038 20.1104 20.011 20.1249C19.9196 20.179 19.8281 20.2309 19.7388 20.2829C19.6473 20.3369 19.5538 20.3888 19.4624 20.4408C19.3107 20.526 19.1611 20.6112 19.0094 20.6943C18.8909 20.7608 18.7725 20.8252 18.654 20.8897C18.1677 21.1536 17.6815 21.4092 17.1869 21.6648C17.056 21.2097 16.7858 20.8564 16.4201 20.6029C16.1998 20.4512 15.9463 20.3348 15.6678 20.2538C15.7094 20.1831 15.7551 20.1062 15.805 20.0252C15.9047 19.8631 16.017 19.6865 16.1458 19.4932C16.1874 19.4288 16.231 19.3623 16.2767 19.2958C16.3224 19.2272 16.3682 19.1566 16.418 19.0859C16.8316 18.4812 17.3511 17.7559 17.9662 16.958C18.0389 16.8645 18.1137 16.7689 18.1865 16.6712C19.4728 15.0191 21.1394 13.0741 23.072 11.1664C25.9584 8.32157 29.0318 5.69698 32.5541 3.60438C32.5604 3.6023 32.5645 3.59815 32.5708 3.59607C32.6082 3.57321 32.6497 3.54827 32.6975 3.52126C32.7287 3.50256 32.7619 3.48177 32.7973 3.46307C32.8077 3.45892 32.816 3.45476 32.8243 3.44645C32.897 3.40281 32.9781 3.35917 33.0653 3.31137C33.1776 3.24903 33.2981 3.18253 33.4269 3.11396C33.5184 3.06616 33.6139 3.01421 33.7095 2.96226C33.7428 2.94564 33.776 2.92901 33.8072 2.91031C33.828 2.89992 33.8488 2.88953 33.8695 2.87914C33.9049 2.86044 33.9423 2.84173 33.9797 2.82095C34.0566 2.78147 34.1355 2.74199 34.2145 2.7025C34.3537 2.63393 34.493 2.56535 34.6363 2.49678C34.7049 2.46353 34.7735 2.43236 34.84 2.40118C35.6047 2.04999 36.3466 1.76946 36.7414 1.77777C37.2007 1.78816 37.5706 2.19754 37.529 2.65471L37.5332 2.65886Z" fill="#6B7FFF"/>
<g opacity="0.5">
<path d="M20.8401 19.6323C20.6843 19.7279 20.5305 19.8193 20.3767 19.9108C20.2811 19.9669 20.1855 20.023 20.092 20.0791C20.0671 20.0957 20.0401 20.1103 20.0131 20.1248C19.9216 20.1788 19.8302 20.2308 19.7408 20.2827C19.6494 20.3368 19.5559 20.3887 19.4645 20.4407C19.3128 20.5259 19.1631 20.6111 19.0114 20.6942C18.893 20.7607 18.7745 20.8251 18.6561 20.8895C18.1698 21.1535 17.6836 21.4091 17.189 21.6647C17.0581 21.2096 16.7879 20.8563 16.4222 20.6028C16.2019 20.4511 15.9484 20.3347 15.6699 20.2537C15.7115 20.183 15.7572 20.1061 15.8071 20.0251C15.9047 19.8651 16.019 19.6884 16.1479 19.4931C16.1894 19.4287 16.2331 19.3622 16.2788 19.2957C16.3245 19.2271 16.3723 19.1564 16.4201 19.0858C16.8336 18.4811 17.3531 17.7558 17.9683 16.9579C18.041 16.8643 18.1158 16.7688 18.1885 16.6711C18.6997 17.1532 19.1839 17.6395 19.6411 18.1507C20.0629 18.6203 20.4619 19.1086 20.8401 19.6302V19.6323Z" fill="white"/>
<path d="M37.5325 2.65874C37.5096 2.89772 37.4265 3.11384 37.333 3.31125C36.8135 4.40846 36.1194 5.52854 35.3069 6.63822C34.4923 5.50152 33.6008 4.50406 32.5742 3.6001C33.3244 3.15332 35.8783 1.76518 36.747 1.78388C37.2062 1.79427 37.5761 2.20157 37.5345 2.66082L37.5325 2.65874Z" fill="white"/>
</g>
<path d="M16.5678 24.7674C15.6909 26.1264 14.2238 26.8641 13.5692 26.4818C13.5401 26.4672 13.511 26.4464 13.4861 26.4257C13.6482 26.2282 13.7978 26.0308 13.9121 25.8147C14.0721 25.5175 14.1573 25.1809 14.1178 24.7715V24.7507C13.723 25.0209 13.2949 25.2599 12.9375 25.5716C12.0314 26.3612 11.3228 27.2881 11.327 28.6575C11.327 28.697 11.327 28.7365 11.3208 28.7718C11.3166 28.8237 11.3062 28.8695 11.2896 28.9069C11.2813 28.9276 11.273 28.9443 11.2626 28.9609C11.2605 28.9671 11.2563 28.9713 11.2522 28.9754C11.2459 28.9837 11.2376 28.9921 11.2293 28.9983C11.1566 29.0627 11.0402 29.0461 10.8698 28.9214C10.7056 28.7988 10.5519 28.6471 10.421 28.4912C9.14503 26.9098 8.69409 25.2661 9.31543 23.6722C9.64168 22.8369 10.1674 22.1407 10.7992 21.5963C11.6221 21.7459 12.2683 22.1864 12.7214 22.9574C12.7318 22.974 12.7421 22.9927 12.7505 23.0073C13.11 23.6411 13.1224 23.6244 13.7895 23.6224C14.7579 23.6224 15.8592 23.6535 16.518 24.6967C16.5346 24.7217 16.5471 24.7445 16.5595 24.7694L16.5678 24.7674Z" fill="#D811AD"/>
<g opacity="0.25">
<path d="M37.5312 2.65883C37.5104 2.89572 37.4252 3.11392 37.3317 3.31134C36.8121 4.40855 36.1181 5.52862 35.3035 6.6383C32.5064 10.4682 28.317 14.2066 25.1397 16.6504C23.5458 17.8764 22.1556 18.822 20.836 19.6324C19.5954 20.3909 18.4172 21.0309 17.1828 21.6668C17.0519 21.2117 16.7818 20.8584 16.416 20.6049C17.6795 19.4391 18.7081 18.7056 19.6349 18.1549C22.7146 16.3179 24.6514 16.4696 30.206 9.32523C31.1931 8.05554 32.1033 6.71311 32.8992 5.27718C33.2857 4.58726 33.801 3.75604 33.9777 2.82715C34.9855 2.31387 36.1929 1.77149 36.7394 1.78189C37.1987 1.79228 37.5686 2.20165 37.527 2.65883H37.5312Z" fill="#0A1640"/>
<path d="M16.5667 24.7673C15.6897 26.1263 14.2226 26.864 13.568 26.4837C13.5389 26.4671 13.5098 26.4484 13.4849 26.4276C13.647 26.2302 13.7987 26.0328 13.913 25.8146C14.073 25.5174 14.1582 25.1829 14.1187 24.7714V24.7506C13.7218 25.0208 13.2958 25.2598 12.9384 25.5715C12.0323 26.3611 11.3237 27.288 11.3279 28.6553C11.3279 28.7364 11.3216 28.8091 11.305 28.8673C11.2988 28.8818 11.2967 28.8943 11.2905 28.9068C11.2738 28.9462 11.2551 28.9753 11.2302 28.9961C10.374 27.5394 10.3803 25.4613 10.8312 24.5802C11.2967 23.6701 11.8266 23.0965 12.7243 22.9552C12.7347 22.9718 12.7451 22.9885 12.7534 23.0051C13.1129 23.6368 13.1254 23.6223 13.7924 23.6202C14.7608 23.6202 15.8622 23.6493 16.523 24.6925C16.5396 24.7174 16.5521 24.7403 16.5646 24.7652L16.5667 24.7673Z" fill="#0A1640"/>
</g>
<path opacity="0.5" d="M17.1152 21.4591C17.1297 21.4924 17.1422 21.5277 17.1547 21.561C17.165 21.5963 17.1754 21.6295 17.1879 21.6649C17.2274 21.802 17.2544 21.9496 17.2669 22.1033C17.35 23.1195 17.0445 24.0318 16.5686 24.7653C16.5562 24.7425 16.5437 24.7175 16.5271 24.6926C15.8683 23.6494 14.767 23.6182 13.7986 23.6182C13.1315 23.6182 13.1191 23.6349 12.7596 23.0031C12.7492 22.9886 12.7388 22.9699 12.7305 22.9533C13.0359 22.9013 13.383 22.9034 13.7861 22.9595C14.5093 23.0592 14.8958 22.9117 14.688 22.1054C14.4428 21.162 14.474 20.5344 14.6007 20.1125C14.9831 20.1125 15.3447 20.1583 15.673 20.2539C15.7769 20.2829 15.8766 20.3183 15.9743 20.3598C16.0076 20.3744 16.0387 20.3869 16.0699 20.4014C16.1946 20.4596 16.313 20.5261 16.4232 20.603C16.471 20.6362 16.5167 20.6715 16.5645 20.709C16.5873 20.7277 16.6102 20.7464 16.631 20.7671C16.7099 20.8378 16.7827 20.9147 16.8471 20.9978C16.87 21.0269 16.8928 21.056 16.9136 21.0872C16.9427 21.1287 16.9718 21.1724 16.9967 21.216C17.0175 21.2534 17.0383 21.2908 17.057 21.3282C17.0798 21.3719 17.0985 21.4134 17.1172 21.4571L17.1152 21.4591Z" fill="#E38921"/>
<path opacity="0.75" d="M10.9188 23.2295C10.7422 23.3936 10.1749 23.9921 10.1873 23.9817C10.0273 24.1438 9.75926 23.9672 9.84446 23.7552C10.4263 22.3276 11.9184 21.2179 13.2857 21.0579C13.5039 21.033 13.5995 21.326 13.4083 21.434C12.5252 21.9328 11.7147 22.4543 10.9188 23.2295Z" fill="white"/>
<path d="M37.4837 1.91515C37.2946 1.70526 37.0286 1.58058 36.7501 1.57227C36.7439 1.57227 36.7377 1.57227 36.7293 1.57227C36.2348 1.57227 35.2789 1.93177 33.8886 2.64039C33.2278 2.98119 32.7083 3.27419 32.4818 3.41342C32.4714 3.41758 32.461 3.42174 32.4506 3.42797C29.3273 5.28368 26.3017 7.6963 22.929 11.0212C20.7844 13.1387 19.0783 15.1939 18.0248 16.5447C17.0252 17.8268 16.1213 19.109 15.5706 20.0171C15.2672 19.9444 14.9409 19.907 14.596 19.907C13.2307 19.9132 11.7636 20.4847 10.6684 21.4364C9.96813 22.0411 9.44861 22.7684 9.12651 23.5955C8.50517 25.1894 8.89793 26.9266 10.2653 28.6223C10.4128 28.801 10.5812 28.9611 10.7495 29.0857C10.9053 29.2021 11.0342 29.2416 11.1339 29.2416C11.2441 29.2416 11.3209 29.1959 11.3667 29.1564C11.4789 29.0587 11.5371 28.8904 11.535 28.6577C11.5308 27.548 11.9922 26.6731 13.0748 25.7297C13.3096 25.526 13.5756 25.3536 13.8562 25.1728C13.8749 25.1603 13.8936 25.1478 13.9123 25.1374C13.8915 25.339 13.8312 25.5281 13.7294 25.7193C13.6213 25.925 13.4717 26.1183 13.3263 26.2949C13.2535 26.3822 13.266 26.5131 13.3533 26.5858C13.3803 26.6087 13.4239 26.6419 13.4655 26.6627C14.2759 27.1344 15.8386 26.2845 16.7447 24.8818C17.3037 24.0257 17.5551 23.0594 17.4761 22.091C17.4678 21.985 17.4491 21.8811 17.4284 21.7793C18.7936 21.0728 19.8867 20.4639 20.9507 19.8114C22.3762 18.9365 23.7893 17.9557 25.2709 16.8169C27.2368 15.3041 32.1659 11.2955 35.4763 6.76325C36.3345 5.59331 37.0224 4.46076 37.5232 3.40303C37.6104 3.21809 37.7143 2.96872 37.7414 2.67987C37.7663 2.40557 37.6728 2.12711 37.4837 1.9193V1.91515ZM16.3935 24.6532C15.6433 25.817 14.4276 26.5006 13.8084 26.3531C13.9123 26.2159 14.0141 26.0684 14.0951 25.9125C14.2905 25.5468 14.3653 25.1665 14.3258 24.7675V24.7468C14.3258 24.6699 14.2801 24.6013 14.2136 24.566C14.145 24.5306 14.064 24.5369 14.0016 24.5784C13.8811 24.6616 13.7564 24.7426 13.6317 24.8216C13.3512 25.0024 13.0603 25.1894 12.8026 25.4138C12.0171 26.0996 11.1152 27.0866 11.1214 28.6577C11.1214 28.7366 11.1131 28.7886 11.1048 28.8156C11.084 28.8073 11.0487 28.7886 10.9988 28.7512C10.8555 28.6452 10.7141 28.508 10.5874 28.3584C9.30315 26.7645 8.94157 25.2122 9.51303 23.7451C9.81019 22.9825 10.2902 22.3113 10.9407 21.7502C11.9631 20.8608 13.3304 20.3288 14.598 20.3226H14.6147C14.9742 20.3226 15.3087 20.3662 15.6121 20.4556C16.1171 20.601 16.7654 20.9398 16.9878 21.7232C17.0252 21.8499 17.0481 21.985 17.0605 22.1222C17.152 23.2298 16.7488 24.1088 16.3935 24.6532ZM37.147 3.22224C36.6566 4.25712 35.9812 5.36472 35.1396 6.51596C31.8625 11.0066 26.9687 14.984 25.0174 16.4865C23.5461 17.6169 22.1455 18.5874 20.7325 19.456C19.6955 20.0898 18.6315 20.6862 17.3057 21.372C17.3037 21.3658 17.2995 21.3595 17.2974 21.3533C17.287 21.3304 17.2767 21.3076 17.2642 21.2868C17.2372 21.2307 17.2081 21.1746 17.1769 21.1205C17.1624 21.0935 17.1457 21.0686 17.1291 21.0437C17.0959 20.9938 17.0626 20.946 17.0252 20.8982C17.0086 20.8753 16.992 20.8525 16.9733 20.8317C16.9234 20.7714 16.8694 20.7153 16.8132 20.6592C16.807 20.653 16.8008 20.6467 16.7945 20.6405C16.7301 20.5803 16.6615 20.5262 16.5909 20.4722C16.568 20.4556 16.5452 20.441 16.5223 20.4244C16.4704 20.3891 16.4163 20.3537 16.3602 20.3226C16.3311 20.3059 16.3041 20.2914 16.275 20.2748C16.2168 20.2436 16.1566 20.2166 16.0942 20.1896C16.0672 20.1771 16.0402 20.1646 16.0132 20.1543C16.0028 20.1501 15.9945 20.1459 15.9841 20.1418C16.5306 19.2545 17.4013 18.0284 18.3552 16.8023C19.4004 15.4599 21.094 13.4193 23.222 11.3184C26.5718 8.0184 29.5704 5.62448 32.6501 3.79371C32.6605 3.78955 32.6709 3.78332 32.6813 3.77708C32.9182 3.6337 33.4273 3.34693 34.0798 3.01028C35.3557 2.35985 36.32 1.98788 36.7293 1.98788C36.7335 1.98788 36.7377 1.98788 36.7418 1.98788C36.9039 1.99203 37.0618 2.06684 37.174 2.19153C37.2863 2.31621 37.3403 2.4783 37.3257 2.63831C37.305 2.86066 37.2198 3.06639 37.145 3.22016L37.147 3.22224Z" fill="#0A1640"/>
</g>
<defs>
<clipPath id="clip0_241_3410">
<rect width="37.7458" height="32" fill="white" transform="translate(0 0.5)"/>
</clipPath>
</defs>
</svg>
